<?xml version="1.0" encoding="UTF-8"?>
<svg id="a"
  xmlns="http://www.w3.org/2000/svg" viewBox="0 0 600 600">
  <path d="M299.157,185.64c-5.526-10.98-19.487-40.865-29.231-15.052-2.69,12.434,12.652,18.978,14.615,30.54,1.018,6.544,1.382,20.941-8.435,19.851-23.85-5.235-10.762-72.205-41.228-63.624-15.052,5.09-23.196-19.051-38.902-12.507-22.396,7.417,1.309,25.741-12.507,34.612-11.271,4.654-25.668,5.381-31.558,17.888-1.89,3.854-3.054,14.616,2.036,16.361,10.325,.073,9.962-17.815,21.596-20.941m240.828-51.046c-8.653-10.834-24.432-24.141-38.684-15.706-9.308,7.926,4.945,27.777-13.452,29.74-5.963,.218-12.216-3.199-17.379,1.309-5.89,2.4-16.651,18.76-5.453,19.924,8.289-.727,18.324-6.544,24.941,1.018,11.271,11.416,21.233-27.049,31.776,1.963,1.163,8.798,10.18,3.199,13.961,8.435,7.199,5.017,17.597-9.308,31.268,.073m-9.891,50.682c3.417-2.327,3.053-7.926,4.29-11.634,5.018-13.089-6.108-23.923-18.76-17.888-8.944,5.017-15.634,14.616-19.196,23.996-1.309,5.09,2.981,7.926,6.763,8.289,3.926,.945,6.98-2.4,10.689-2.618,6.035,.073,6.108,16.361,15.052,3.49m-288.019,9.671c-23.269,15.416-7.126,51.409,12.652,21.96,1.673-3.49,1.6-8.798,6.617-9.089,8.217,.291,1.527,16.143-2.108,19.487-12.143,15.052-46.319,32.285-27.559,54.536,6.399,6.69,17.16,7.707,22.469,15.779,8.071,15.488-7.126,36.938,10.107,52.281m38.32-138.52c-7.126-9.744-18.906-.945-18.469,9.089,2.109,19.342-8.144,18.615-20.432,28.868-13.161,11.125,2.835,26.686,14.761,30.031,6.544,2.109,13.67,1.527,20.359,3.272,17.015,2.4,28.722,14.907,39.047,27.486,20.724,18.615,13.38-10.035,26.759-14.834,6.544-1.309,11.925,4.799,17.67,7.126,31.485,17.378,40.938-7.054,77.513,1.6m-249.991-15.198c-6.908,6.617,3.127,15.561,9.962,16.797,10.18,2.981,9.162,14.979,10.18,23.414-.073,3.054,2.836,7.635,6.108,4.945,4.654-3.781,3.999-10.689,3.054-16.07-5.308-17.233-18.469-16.506-29.013-29.086m286.274-50.9c-.509-2.836,2.108-5.89,.218-8.508-5.89-9.162-15.706,4.508-23.559,3.709-11.489,.727-5.308,18.033-19.851,17.451-9.598-.8-10.398,3.49-1.163,5.963,11.271,3.999,21.741-5.963,32.721-1.381,5.453,2.254,16.07,6.035,17.815-2.327,.218-5.017-6.544-5.817-6.18-14.688m-96.2-108.416c6.544,5.09,21.232-11.634,23.923,5.963-1.963,7.053-10.907,9.162-17.015,11.052-9.816,2.836-23.05,18.833-10.325,26.177,6.108,3.709,12.507-1.673,16.651-5.963,15.197-24.286,33.303,13.38,41.52-2.181,.8-14.47-27.049-7.417-29.522-14.834,1.091-6.326,11.344-7.126,16.652-7.489,30.685,.654,10.325,43.265,30.903,42.755,16.797,2.327,22.469-29.594,37.084-39.047,10.398-9.234,33.376-14.833,37.666,3.199,4.29,16.943-11.197,31.194-9.309,48.137,1.601,14.397,21.088,21.596,17.817,37.229-2.907,6.472-10.76,7.853-13.017,17.451-1.456,3.927,.291,8.144,3.927,10.253,23.049,16.215-7.052,34.393,11.124,59.625,8.726,28.795-26.467,45.519-50.753,40.938-10.762-.291-18.833-9.816-29.522-10.253-18.105,1.163-15.924,20.723-17.815,33.667m-122.814-195.237c-2.4,.291-4.072,1.745-4.363,4.145-3.636,2.618,3.199,4.072,5.163,3.345,15.343-2.836,21.887,15.779,35.121,18.978,2.691,1.236,5.308-1.89,2.545-4.29-4.654-4.436-11.271-5.963-15.851-10.544-6.617-5.017-13.743-11.634-22.469-11.634m-172.332,12.289c2.327,15.997-22.977,18.106-22.25,33.521,3.127,5.381,8.653-1.745,10.689-4.726,6.035-5.89,15.488-8.871,16.943-18.251,2.618-4.218-5.817-24.505-5.235-10.689m498.454,49.446c-41.813,21.378-6.616,24.723-7.052,58.68,.073,14.979-19.418,22.905-30.397,13.525-12.143-6.254-11.124-25.523-25.957-27.559-13.308-2.254-11.561-16.724-2.693-23.341,4.8-2.472,9.382-6.035,10.619-11.561,2.034-8.289,5.596-26.104,17.521-19.269,1.165,1.745,2.402,3.417,2.111,5.526-1.383,5.817,5.742,10.471,10.76,7.707,6.329-2.981,12.726-5.89,17.453-11.343,4.727-6.253,20.943-12.87,12.944,1.018m-307.945-24.868c-6.908-3.054-18.179-21.378-25.377-12.507-3.708,11.271,1.163,27.049-12.07,33.521-13.67,7.199-33.158,4.29-44.065,16.361-4.654,9.598,8.362,13.598,15.634,13.888,13.379,3.781,27.34,3.49,41.083,4.799,10.035-.218,19.996-3.054,29.522,1.309m-189.929-54.172c1.745-11.634,2.254-39.484-13.452-40.793-11.489,6.326,5.89,25.013-11.271,33.521-3.49,1.673-6.762,3.781-9.743,6.326m288.892-28.358c-22.687-5.744-49.155,13.38-69.151-1.6-4.945-3.926-8.29-10.18-14.543-12.216-11.707-3.781-25.232,3.999-25.959,16.579-2.036,8.798,.873,18.251-2.763,26.759-1.745,4.654-8.653,4.799-10.762,.218-1.236-3.127-2.472-6.762-2.327-9.889M385.25,93.148c-11.561-1.091-24.141,2.981-29.231,14.252-5.163,11.271,3.781,21.814,1.891,33.158-3.709,9.598-18.179-.364-26.832,13.452-3.199,7.999,7.053,.218,9.743-.8,7.054-2.472,15.125-1.091,21.233-6.108,10.98-9.162-1.745-27.631,10.398-36.575,16.724-12.725,35.339,2.545,46.682,15.052,7.271,8.653,6.326,21.887,13.743,30.613,12.434,13.815,40.429-10.253,48.354,10.907,1.82,9.744-5.528,17.379-13.595,21.451-9.454,4.144-15.273,22.396,.36,19.778,2.912-.509,3.494-4.436,1.893-6.908-6.907-12.07,20.87-8.871,30.757-36.139,10.182-17.233-14.105-33.885-9.887-7.926-1.601,5.381-6.838-.073-8.29-2.763-13.599-15.997-55.045,23.777-49.81-28.358M113.373,311.726c6.035,1.963,25.741-11.198,21.669-17.888-1.745-2.4-4.363-3.054-6.981-3.491-11.561-1.818-13.306-14.033-9.598-23.487,3.781-8.58,10.325-15.852,18.542-20.36,6.617-2.69,22.468-5.671,13.67-15.706-4.29-3.054-9.889-5.599-8.726-11.925,1.6-17.233-8.216-4.363-16.433-8.508-7.781-5.672-1.963-24.068-15.634-23.341-15.124,1.163-20.214,17.742-19.924,30.685,.873,16.361,12.289,29.522,15.342,45.373,2.109,15.197-6.471,32.866,5.235,45.81m10.762-151.754c-3.781-14.907,10.98-38.829,23.487-18.688,9.453,4.581,16.579-10.252,26.031-11.052,18.397-3.49,4.436,13.961,.218,20.869-1.382,8.653,10.471,19.051-2.763,24.068-23.196,3.345-20.142,29.377-36.284,27.995-3.781-1.89-2.836-8.726-2.109-12.507,1.454-9.598-7.344-17.524-8.216-27.122m70.023,251.662c7.562,7.781,7.999,19.56,11.707,29.304,1.745,10.398,10.907,18.105,12.289,28.358-.146,18.76-22.178,26.032-29.522,6.544M459.998,221.342c-6.834,9.453-15.342,22.687-10.396,35.484,3.199,9.307,12.289,13.815,17.162,21.96,3.781,6.835,3.999,17.16-2.402,22.614m29.378-59.48c9.887-5.017,17.38-16.361,29.956-13.67,11.925,3.345,8.872,20.505,2.038,27.777-9.891,10.471-30.32,6.617-35.411,22.614-3.417,9.889-.655,21.233-6.834,30.322-3.927,7.853-19.345,10.325-15.492-1.963,3.781-9.307,12.435-16.797,11.998-27.559,.218-5.235-.942-10.98-4.577-15.124-7.348-13.161,.073-23.341,14.832-21.523m-147.61,15.633c5.308,5.963,3.781,12.725-.436,18.615-2.69,10.47,20.942,7.998,18.324,19.851-5.381,7.199-17.524,1.091-23.196-3.418-7.926-5.308-2.254-15.197-7.344-21.378-8.508-8.798-34.394-12.579-39.847,1.018-3.127,7.562-3.199,16.943,3.127,22.759m-119.978,90.748c4.945,8.216,12.507-4.072,11.852-9.744,.509-6.253,2.545-11.634,7.781-15.415,4.363-3.272,15.052-1.963,11.489,5.308-2.618,2.618-5.672,4.726-8.435,7.199-4.508,4.145-.8,12.507,4.145,14.47,7.271,4.29,6.253,14.906,15.415,17.378,11.561,4.29,17.233-7.199,30.322-1.745m111.47-20.288c5.599,7.49,27.268,15.561,24.868-.654-3.854-4.436,2.908-10.253-.291-14.179-5.308-3.999-11.997,2.618-18.033,1.527-5.017,1.018-9.744-2.109-14.688-.582-5.745,2.472-.8,8.289,2.399,10.544m28.286,23.196c-19.415,1.236-30.904-15.052-45.01-25.377-8.871-5.817-15.27,5.963-23.196,7.926m-208.18-39.193c-8.871,14.47,4.072,31.849,12.071,44.21,5.453,12.798,3.854,29.231-6.472,39.193m320.813-106.38c11.561-2.618,12.507,11.198,17.744,7.344,.214-7.417-9.527-9.671-8.654-17.67-2.475-15.488-26.978,10.98-9.309,10.107m140.411,16.433c0,5.381,6.834,11.416,10.833,5.308,3.344-5.89,8.726-11.125,9.891-18.033-4.145-17.67-23.126,1.091-20.943,12.507m-418.395-15.852c5.963,25.086,23.777,15.197,23.995,31.703-1.091,10.107-9.598,19.633-4.581,29.885m188.401-190.946c12.143-3.127,3.054-11.561-4.945-11.489-6.326,1.891-14.906,1.527-18.833,7.708-1.309,6.181,10.18,.873,13.306,.8,3.854-.654,6.399,3.563,10.325,2.763m-149.208,27.922c6.472-9.816,4.726-23.414,10.689-34.103,2.545-4.508,7.053-11.852,13.088-8.144,20.36,12.87,16.724,48.791,43.846,56.062m-89.001,176.258c-5.963,2.545-12.434,16.433-6.762,21.16,3.708,1.236,4.144,4.436,4.508,7.562,.218,10.762-8.726,21.669-1.963,32.067m338.775-253.844c-4.946,.655-9.891,1.018-14.473,3.418-8.654,3.199-30.975,28.067-31.994,5.89,.946-6.253-6.543-11.707-12.216-9.089m-276.093,124.049c35.921,5.454,33.521,32.067,60.861,41.956,5.963,2.981,26.759-2.545,17.451,9.962m-33.084,49.518c1.236-3.854,5.963-3.781,9.307-3.418,2.327,.291,4.654-2.181,4.945-4.871,0-13.67-20.142-9.089-27.995-4.581-24.432,17.16,31.703,45.228-7.344,64.861-10.18,5.163-22.978,.655-29.013-8.726-6.762-7.126-6.617-23.923-19.778-20.796-5.453,1.672-11.416,1.018-15.634-3.054-.654-.654-2.472-.581-1.818-2.327m305.036-69.151c-5.237,17.452-43.339,26.468-54.391,11.707-.582-1.381-.436-2.545,.218-3.781,3.272-5.163,3.781-11.271,3.563-17.233,1.163-14.761,19.633-12.943,28.358-6.69,5.745,6.398,22.616,6.617,22.252,15.852M40.805,283.585c-18.469,21.014,16.288,56.644,38.102,42.756,9.962-8.289,.509-23.705-1.6-33.085m205.198,128.049c26.686,6.544,32.358,34.175,62.898,2.835,17.597-16.215-.945-30.83-6.762-19.487-2.109,5.381-3.272,12.725-10.325,13.234-5.018,.073-9.671-7.707-14.834-3.636-5.745,3.854-13.816,6.69-19.851,2.036-1.018-.654-.8-2.254,.364-3.127,6.908-4.945,15.706-7.78,24.214-6.035,8.071,2.327,16.361-5.09,11.344-13.016-8.362-7.271-16.288,6.544-25.377,3.127-7.707-2.763-10.98-3.926-17.451,2.036m141.138-130.594c.509,7.344-4.799,11.925-8.58,17.452-5.017,6.835,13.525,19.705,17.669,12.07,8.799-16.142,9.163-19.705-.728-35.702-5.743-15.924-12.796-4.508-8.36,5.963m-95.546,174.441c-16.579,7.78,13.307,12.289,20.505-1.818,2.181-2.254,4.363-11.125-1.309-9.816-4.654,1.89-7.126,7.053-11.707,9.308m129.357-102.309c-.364,3.49-4.582,6.399-5.091,10.325-2.689,8.944,.291,24.65,11.274,25.668,9.814-.218,18.759-9.598,28.719-3.49,16.725,10.907,21.671,31.122,47.195,22.759m-366.116-49.518c-4.945-1.163-2.4,2.254-2.327,5.163,.145,9.38,10.253,3.345,15.634,3.709,7.489,.364,13.088,5.453,14.906,12.289,2.036,7.417,5.745,13.743,12.87,17.451,10.689,5.018,19.924,16.433,32.285,15.488m-97.945,79.04c15.561,1.527,11.489,22.614,16.579,33.303,6.035,18.979,29.013,15.052,41.301,4.943m356.372-230.646c22.685,13.452-2.693,29.085-10.837,42.61-7.853,20.433,19.341,46.464-7.343,63.77M392.812,132.559c7.926,6.181,11.271,17.233,20.433,22.323,10.98,5.09,16.215,27.559-1.6,23.123-9.453,1.091-7.781-11.634-13.525-16.07-3.781-5.453-12.943-7.126-14.107-13.961-.8-4.871-1.454-14.543,5.018-15.415m-153.499,182.294c6.98,1.673,26.54,5.817,29.74-2.182,.509-6.617-3.709-12.507-3.199-19.051,1.236-7.853,8.653,.436,10.253,3.781,4.363,6.835,8.362,13.961,11.707,21.378,3.999,10.035,15.488,4.218,21.814,10.471,2.182,2.545,1.454,9.162-1.454,10.035-15.416,2.981-26.686-14.397-42.029-15.343-22.032,8.362-49.882-6.399-31.122-8.726m210.361,28.359c-.873,18.687-33.593,19.851-46.173,27.922m-146.445-18.615c-.873-4.072,3.49-4.363,5.745-6.399,3.199-6.762-11.125-5.018-14.688-3.563-11.78,3.999,9.38,25.013,8.944,10.18m272.313-41.011c0,1.455,1.383,.728,2.038,1.309,4.145,4.218,1.816,10.325,4.29,15.343,3.126,10.47,12.721,17.815,15.633,28.14,3.854,6.617-3.999,13.525-10.692,10.98-7.999-2.618-6.106-13.379-14.032-16.361-4.654-1.236-11.343,1.091-13.454-4.581-3.344-7.053,3.562-12.143,7.853-16.797,4.218-4.508,2.548-11.052,4.8-16.433M21.754,291.075c-5.672,16.652,7.635,42.756,24.359,48.209,2.836,2.036,7.707,3.636,8.507-1.236,1.963-6.835-17.306-14.397-20.578-22.759m130.885,126.013c-6.471-3.199-13.743-4.581-19.632-9.089-8.144-7.999-.8-19.196-12.071-1.382-2.618,7.271,8.871,2.981,12.216,6.544,7.562,2.327,7.926,12.289,15.488,14.034,3.708,1.018,7.198-1.745,5.963-6.181-.146-.581-.655-1.309,0-1.963M51.13,237.557c2.981-15.124,19.124-12.289,27.777-3.418,10.762,10.762,16.651,34.83,12.143,49.373-7.053,18.905,17.597,28.649,9.671,47.555-3.636,10.107-13.234,18.324-9.962,30.104,0,3.636,1.89,8.071,0,11.27-14.761,12.361,.145,20.142-17.233,21.16-19.487-4.508-.291-30.976-15.634-40.429m363.642-52.209c-25.741-13.088,5.599-22.832-1.163-40.647-5.09-24.432-24.795-7.926-30.976,6.181m-133.066,190.655c4.217-4.945,9.598-5.599,15.488-4.145,4.872,1.891,13.598-4.072,7.126-8.144-3.854-2.109-7.78-3.999-11.707-5.963-11.489-6.762-9.598,9.235-19.633,9.889-9.671,2.69-7.417,18.542,3.563,15.052,.8-.218,1.454-.727,1.818-1.6m-61.88-272.604c22.905-6.253,20.796,31.049-.218,14.907-8.071-4.945-17.16,1.163-20.796,8.653-8.144,10.907,4.508,39.411-16.215,36.793-1.309,.073-5.454-.364-5.163,1.018m23.559,158.734c16.215,1.091,11.998-22.687,21.233-16.506,5.963,5.817,6.18,15.052,11.125,21.596,9.525,17.452,24.795-.581,38.247,2.472,17.96,8.435,31.122-.436,40.647-15.706m-130.521,28.577c4.363,4.581,13.452,2.981,18.396,7.78,12.798,9.671-5.526,30.249-16.433,18.033-4.29-8.871-10.544-16.361-21.015-14.615-6.108,1.018-10.689,5.963-16.506,7.853-7.271,3.854-14.834-2.981-12.071-10.689m20.723-57.08c2.472,7.053,1.964,17.306,10.471,20.069,2.254,.727,2.545,1.455,2.618,3.709-1.672,12.143-8.798,24.359-17.67,32.648-10.035,4.581-4.436-9.962-1.745-13.815,3.999-8.29,5.745-18.033,3.854-27.195-.364-11.198-21.742-28.868-16.579-35.993,.873-.364,2.472,.582,2.763,1.527,4.072,5.745,14.616,4.581,14.834,15.488m179.094,75.695c-19.706-12.943-7.926,7.271-30.54,5.599-17.088,2.618-4.872,35.266,8.726,24.141,4.072-5.308,5.454-13.307,13.452-13.888,6.398-.291,15.27-4.654,10.325-12.071-.291-.582-1.091-.945-.582-1.818M154.457,163.462c-10.616,10.762-37.739-14.761-21.233-21.741,6.253,.581,2.036,7.707,12.87,7.853,5.745,.873,8.363-5.963,13.889-5.89,6.108,.291-2.254,10.543-1.163,13.888m217.705,.727c8.726,2.545-5.453,14.47-10.689,11.561-3.272-2.4-5.817-5.235-10.107-2.836-1.964,1.236-7.344-.727-5.527-3.345,5.963-7.271,16.433,2.545,22.759-4.217,1.091-.727,2.109-1.236,3.418-1.163m-86.675-.582c-11.561-5.235-2.836-31.412,1.381-20.796,1.018,3.999-3.563,11.344,1.818,12.87,4.217-5.526,4.217-13.67,10.107-17.96,3.345-2.618,6.108-2.545,7.853,2.327,1.381,7.781,10.471,10.18,12.652,1.6,2.109-9.962-5.235-31.34,11.489-30.467,1.163,.073,2.254,.8,1.963,2.327,1.455,5.381,4.799,5.017,7.926,.582,2.981,1.018,1.527,5.09,2.4,7.49-2.545,6.181-13.088,.727-15.561,11.634-.945,8.435,.8,18.833-8.653,23.414-6.108,4.072-10.543-2.545-15.997-4.217-6.035-1.454-9.162,5.817-8.944,10.98m193.635,51.918c6.256-2.109,1.237-11.998-3.344-14.107-4.796-2.181-13.741-.436-11.707,6.399,1.456,2.109,1.092,4.218,.728,6.544,.582,6.617,7.489-2.836,11.124,.727,.801,.509,1.965,.291,2.912,.436m3.999,48.354c-2.402-12.579,7.926-12.943,14.614-21.014,8.945-6.399,25.015-1.382,9.741,7.999-8.941,4.436-8.649,21.45-21.812,17.015M226.443,165.498c-5.163-.945-9.307-3.636-13.088-7.126-10.398-8.58-19.632-5.672-16.579,8.871,.8,3.854,1.163,7.926,3.49,11.344,2.836,4.217,10.325,6.035,12.361,.364,3.345-14.179,15.924-5.745,25.159-4.799,.727,0,1.673,.364,1.963-.8,.727-6.326-8.58-7.126-13.088-7.926m51.699,256.461c-10.035,2.909-2.109,15.488,5.963,14.688,8.362,.364,16.361,3.199,23.05,8.29,13.161,11.852,44.937,21.596,53.154,.436m63.77-137.938c-1.018,5.163-5.09,8.071-8.289,11.707-5.163,11.925,19.269,7.562,23.197,16.651m-88.858-199.599c-.364-4.654-3.709-7.999-7.49-10.398-6.908-1.091-4.29,6.471-4.144,10.543-.654,5.89,12.434,6.253,11.707,0m-218.796,101.145c4.945-4.072,5.235-12.434,1.382-17.088-4.217-2.981-10.398-1.236-14.325-5.526-6.835-4.072-4.508-21.523-12.87-19.851-3.345,1.091-5.599,2.981-6.472,6.69-3.926,14.106,2.254,29.013,8.435,41.592,5.381,8.29,14.179-2.108,20.578-3.926m401.453-17.378c14.032,5.017,7.853,26.322,4.8,37.23-4.873,8.362-15.633,10.98-23.777,14.834m-244.392,7.562c12.87,8.144,15.779,30.904,33.521,30.467,8.726-1.018,12.798-.8,20.433,3.054m111.688,52.718c1.381,5.526,22.906,13.598,14.107,1.382-2.907-1.309-2.111-7.344-5.746-6.326-2.762,1.018-7.488,1.236-8.36,4.726m-200.108,80.421c-2.545,9.525,5.744,16.433,5.526,25.741,2.109,14.397-4.363,31.703-16.651,39.047M485.013,229.268c2.98-2.181,13.235-6.544,10.473-10.834-4.218-2.254-10.765-5.599-12.58,1.309-.073,3.345-3.49,9.017,1.816,9.744M51.494,245.92c1.309,10.907-2.981,24.286-14.906,26.686-6.035,.655-12.652-.436-17.451,4.072-19.778,17.888-7.053,48.791,11.925,62.17m342.118-87.402c-7.199,.436-8.58,15.342-.218,15.488,6.762,1.745,19.414-14.761,8.944-15.852-.727,.073-.945-.218-1.018-.8m-174.077-25.741c-9.09,10.471-17.815-15.342-26.395-2.4-9.889,18.615,1.454,41.011-4.29,60.643-4.072,12.725-17.67,18.978-22.687,31.267m180.84-81.003c18.542-1.818,28.722,11.052,22.687,28.722-1.018,3.199-1.454,6.617,0,9.889,7.126,12.507,24.723,10.544,30.322-2.4m39.993,131.394c-.146-2.181-1.963-3.054-3.418-4.145-6.035-3.708,6.69-9.089,0-12.652-6.253-4.799-18.178-4.654-16.579,6.326,.436,3.345,1.018,6.544,0,9.962-.873,6.035,18.397,5.235,19.778,.8m-7.926-256.461c13.525,40.356,21.231,11.634,41.81,23.632,12.143,7.708-2.616,29.885-14.468,21.596m-33.667,153.717c1.672-4.072,4.436-8.217,9.307-5.89,3.127,1.381,11.125,2.763,8.58,7.635-3.781,8.434-39.047,20.36-19.414,1.6m-323.722-6.18c-2.254,6.617-6.762,12.361-7.853,19.414-.436,5.672,2.036,11.779-3.054,15.997-9.38,1.236-1.309-19.996-5.744-25.741-4.363-9.671,14.252-22.905,16.942-9.889m25.159-160.261c8.944-3.272-.8-11.779-.436-18.033-3.926-11.198-20.723,7.708-12.652,16.07,3.708,2.545,8.726-.364,12.87,1.963m421.232,102.235c-12.944,1.6-27.995,11.853-29.378,25.523,.801,15.706-15.196,20.723-27.485,24.795M192.486,506.671c-3.127-.945-4.945-3.781-7.562-5.526-6.253-1.745-2.182,7.926,.073,10.035,9.889,13.16,29.958,.8,10.47-2.764m-84.057-212.397c.727,3.345,.654,10.18,5.381,9.743,2.472-.073,5.599-2.4,6.108-4.799,.8-3.999-5.235-5.672-7.489-8.289-2.763-2.254-4.145,.509-4.145,3.199m148.263-154.008c-7.489-3.636-16.651,2.545-8.58,9.016,4.217,2.036,9.235,1.89,11.562,6.617,4.508,6.326,8.289-2.981,12.216-5.163,1.963-1.236,2.182-2.763,1.673-5.09-1.673-4.654,3.999-16.651-5.599-13.815-4.581,1.745-6.472,7.271-11.125,8.507M97.74,385.821c1.382,.073,2.036,.873,2.618,2.036,2.763,4.799,8.289,7.853,7.853,14.179,1.091,5.235-5.453,20.505-11.489,14.252-1.818-2.836-2.691-3.054-6.181-2.036-7.999,3.999-13.743-13.743-3.781-13.815,14.179-1.673-3.345-14.834,10.689-14.761m177.349-20.869c16.215,4.581,19.124,20.578,33.739,22.178m188.182,9.09c2.693,4.072,11.051,.364,12.071-3.781-.291-7.199-6.397-13.67-13.668-13.379-17.453-1.163-23.199,19.051-2.548,17.088m-85.874-239.228c17.088,9.889,4.654,25.959,0,8.508-.364-2.327-3.927-7.708-.218-8.508m-74.968,76.858c-9.235,1.236-16.797,7.781-25.959,8.726-6.544,.582-15.634,.436-20.796-3.199m169.715,15.27c-5.965-8.216,4.727-35.412,15.051-21.596,3.417,5.599-.364,11.562-1.961,17.015-1.674,5.817,1.015,11.489,3.562,16.651,1.743,3.418,1.743,3.926-.582,6.762-1.747,0-2.907-.873-3.781-2.4-1.893-3.709-6.329-5.163-8.29-8.726m-27.632,131.03c1.527,3.127,3.927,7.053,7.927,4.726,2.252-1.163,5.596-1.018,6.252-4.072-4.29-1.454-15.488-11.27-13.96-.872m-21.015-120.487c5.308-1.818,5.817-17.597-.581-14.47-2.545,2.472-5.745,15.343,.364,14.47m-17.233-178.73c17.67-1.382,29.813,34.83,34.612,17.451,4.29-16.433-10.907-13.743-5.381-21.741,5.526-5.017,14.978-.727,15.633,6.69,1.31,9.089-2.254,17.815-3.999,26.541m-2.981,102.017c-1.163-16.361-30.612,4.872-19.851,8.944,2.254,.509,4.072-.436,5.526-1.891,4.363-4.799,13.016,2.254,14.543-6.908m42.828,84.275c7.78,1.527,12.58-24.577,4.582-9.889-2.038,3.127-4.873,5.672-4.8,9.671m-201.708,56.717c-3.636,.436-4.363,2.109-4.363,6.762,.582,8.726,11.779,13.743,7.562,23.341-4.363,9.598-16.797,12.943-26.177,8.944m41.447-19.851c-2.472-5.235-7.781-8.653-12.943-10.834-4.944-.873,6.181,15.852,12.725,11.052m38.102-216.76c-3.199-11.998-10.907-4.799-14.834-8.144-8.871-2.836-15.124,11.707-9.598,17.742,4.581,4.363,10.471-1.236,15.924-.073,5.163,.218,9.162-4.217,8.508-9.307m10.907,149.136c17.451,14.47,33.812-.582,50.972,5.017,23.559,9.744,9.38,34.394-10.689,36.211m-219.741,119.105c-4.508-1.527-6.69,4.726-11.27,4.144-7.926-.073-2.472-17.669-11.489-12.434-3.709,2.763-6.835,6.617-11.489,7.926-22.614-2.69,6.326-41.228,18.252-18.469M443.132,172.188c-18.907,.654,.51,13.379,9.159,9.38,6.693-2.181,1.674-7.271-1.816-9.743-2.257-.582-4.727,.8-7.125,.364m-250.428,112.343c-1.964,9.308-2.545,17.451,9.525,11.271,3.563-3.781-2.036-9.453-2.182-13.816-2.4-10.325-8.726-6.471-7.126,2.4m-88.493,58.026c8.289-10.107,14.325,1.672,19.414,8.144,4.581,5.308,12.143,3.199,17.088,7.708m43.628-110.961c5.963,24.141,9.235-4.799,22.25,13.234,7.199,2.254,5.453-9.816,6.544-14.034,.654-4.871-3.127-8.653-7.926-7.489-5.745,1.6-10.907-.073-14.107-5.163-7.926-6.98-7.708,8.508-6.762,13.307m298.637,103.399c.578,3.491,8.213,6.181,3.563,10.325-4.873,1.818-8.726,11.707-13.963,5.454-4.654-7.199-.728-17.815,4.654-23.632,9.818-2.763,4.654,2.182,5.528,7.708m-287.73,83.548c-.218-.218-.727,.073-.8-.581-.218-2.472-1.818-4.508-2.4-6.908-.509-1.963-1.89-1.89-4.072,0,.436,5.817,3.708,10.689,4.217,16.433,1.091,8.144-4.508,15.924-1.018,23.995,2.036,3.491,7.417,2.472,8.071-1.599,2.618-9.671-3.199-19.197-3.345-28.722m-57.153-266.569c-2.763-.873-6.326,1.236-4.726,4.508,2.472,2.835,.581,7.489,2.763,9.889,5.308-1.091,11.27-14.252,2.181-14.616m395.783,151.39c-5.164,1.527,.073,17.378,3.927,10.689,0-6.253,5.888-12.289-3.708-10.689m-46.03-67.115c0-4.654-5.742-6.98-8.581-2.618-4.218,4.363,3.781,22.178,9.163,14.325,.728-1.382,1.092-2.618,.218-4.217-1.237-2.254-.218-4.945-1.019-7.344m-193.709-60.425c-4.944-7.489-7.271-17.088-14.252-23.05-1.818-1.527-3.854-.727-3.418,1.6-.364,8.071,7.344,13.525,11.126,19.996,.872,1.818,6.471,5.599,6.326,1.6m-96.564,121.723c2.763-2.545,7.344-2.618,10.689-4.508,1.454-.727,2.69-.072,3.781,1.164,1.6,1.599-1.091,3.054-1.6,4.581-3.127,5.599,6.472,4.072,7.635,8.362-2.036,5.672-37.666-3.345-23.705-8.726m311.799-39.92c-21.598,11.853-6.474,33.23-24.141,44.428-10.906,6.253-33.668-3.272-21.234-16.506m-234.502,132.412c-4.872-.655-12.579,9.525-4.726,9.308,2.763-1.236,7.199-5.381,8.289-7.926-.436-1.236-2.254-1.818-3.345-1.163M107.847,226.069c.073,26.177,21.669,5.163,11.344-1.89-2.764-1.527-11.489-2.545-11.126,1.672m281.33-38.974c-1.309-2.618-6.908-3.345-9.889-1.163-3.781,4.508,10.47,11.853,10.107,1.382m-114.597,151.536c11.416,9.162,25.886,19.924,41.447,14.47,17.16-5.526,34.902,.146,52.354-2.545,8.798-2.182,6.472-14.906-1.163-17.088-18.105-4.581-31.921,8.289-42.828-14.689m67.987-107.326c-5.235,4.508-19.487,32.285-21.887,11.489-.8-9.162-3.927-30.904,11.779-23.778,2.981,1.309,4.508,1.236,6.69-1.018,6.253-5.235,12.507,.654,9.162,6.98m-102.527,270.641c-3.345-1.454-3.345,3.563-4.363,5.527,.436,11.27,17.306-4.581,4.581-5.527M78.107,218.943c1.745-4.581,3.926-6.326,2.545-12.071-1.236-4.871-.8-9.889-1.454-14.833-.073-1.891-1.455-3.491-3.272-3.927-7.635-2.4-12.434,6.472-12.507,13.234-.073,6.617-9.162,4.799-7.926,12.507,3.199,6.399,12.798,10.616,19.487,6.762m306.126,113.433c1.018,3.636,5.235,5.745,3.199,10.107-1.89,2.836,1.6,5.381,4.144,3.199,16.506-6.399-5.817-22.759-7.344-13.452m-149.573-104.271c-11.707,15.343-10.616-17.96-9.016-24.141,2.4-10.544,11.561-18.251,17.233-4.581,.8,5.235,11.416,27.122,.945,25.813m222.069,21.96c.874-3.563,3.563-7.199,2.616-10.907-.364-2.182-5.309-2.618-6.179-.218-5.382,6.035,.364,25.668,2.762,15.052m-165.715,43.992c-.145,.945,.582,1.018,1.163,1.163,20.651,2.836,22.396-.218,37.884,16.651m-123.54,66.242c-2.4-5.163-13.38-2.545-7.49,2.472,6.326,4.072,7.635,12.87,14.834,15.561,4.726,2.181,14.906-1.673,10.689-7.708-4.799-3.49-11.052-4.508-15.415-8.726m365.822-47.191c2.693,.146,3.344-2.618,4.363-4.581,1.893-3.418-4.363-6.035-5.451-2.545-1.529,3.563-5.746,7.344,.942,7.271m-205.488,51.409c1.673,.145,1.6-1.236,1.527-2.182-.509-4.145-5.453-4.217-8.726-4.872-4.218,1.382,4.217,8.071,6.98,7.054m-102.526-74.314c-4.144,6.253,6.035,14.906,5.453,8.289-.945-3.054-2.036-7.053-5.235-8.289m197.708,83.621c-4.873,1.963-4.436,8.289-7.707,11.925-2.111,2.909-4.072,8.435,1.601,8.217,5.16-1.6,7.271-7.562,13.449-6.835,13.454-.8-1.961-11.634-6.907-13.234m18.395-222.577c2.693-1.455,5.965-6.253,5.965-9.308-4.436-.654-9.454,6.181-6.183,9.525m-109.215,31.485c3.854-.873,6.326,4.726,3.781,7.489-1.309,2.327-6.835,6.326-6.908,1.163,.146-2.763-.145-7.562,2.763-8.726m173.64,119.905c1.383-2.254,9.309-6.762,7.926-1.236-2.252,3.709-1.743,8.798-4.873,11.852-2.98-1.381-3.854-3.926-3.781-6.835m-412.94-53.881c2.472,9.308,9.598-1.89,6.326-6.326-3.708-3.781-6.108,2.909-6.108,6.108m411.852-17.233c15.706-5.817,21.957,8.507,10.105,18.251-3.781,1.89-4.654,6.908-8.508,8.289-8.581,.654-7.926-18.106-5.16-23.414m3.562,111.397c-6.984,18.615-28.14,.727-11.488,1.963m-8.726-80.422c.946-.291,1.088,.509,.946,.945-.874,3.127,2.034,5.163,2.252,8.144,1.237,5.453,9.96,5.453,8.29-1.163-1.747-3.272-6.688-12.943-10.906-8.144m-28.14-37.229c2.471-.436,5.596-7.054,3.562-8.435-3.057-.873-9.163,8.071-3.708,8.216m-256.681,39.629c1.163,7.562-5.308,5.963-5.09,10.325,2.472,3.636,7.999,.073,10.689-1.963,3.709-3.854,2.763-10.398,1.236-15.052-2.4-6.908-10.834-5.017-7.562,2.4m-118.814,133.285c-2.4-2.618-4.726,4.363-5.963,5.963-.8,6.326,6.108-3.563,6.108-5.745m5.381,35.266c-4.144-.945-9.671,6.108-5.526,8.726,2.618,0,8.216-5.963,5.963-8.508m57.08-216.397c2.181,8.871,7.999,1.745,12.289,5.526,4.072,3.272,6.035-5.599-.218-3.781-9.671,3.054-8.726-6.181-12.289-1.89m380.002,41.956c-7.343,2.472-15.051,16.724-23.049,9.162-3.49-3.708-3.344-10.543-8.654-12.361m-259.807,190.219c.727-2.981,4.145-3.345,5.744-5.526,3.054-5.453-7.344-3.708-10.107-2.763-4.945,2.545-3.636,11.198,2.4,9.525m-145.21-63.842c1.673-6.108,6.326-1.527,1.527,4.508-4.436,5.744-5.671,2.4-3.708-2.909m264.169-36.866c-6.108,9.162,5.09,24.505-10.689,27.559m49.954-123.032c3.491,.945,2.618,10.107,.218,12.725-4.654,6.326-15.561-5.599-.436-12.725m-198.872-75.331c-5.017-2.254-6.472,17.088-2.182,17.378,1.818,.436,2.327-1.309,3.345-2.327,4.654-2.545,1.6-11.489-.8-14.906m82.894,135.611c-3.563,2.909-.436,7.126,2.909,6.035,2.618-2.182,9.089-2.327,7.999-6.69m-15.488-63.77c-10.107-2.763-20.723,10.398-8.944,15.052,7.926,.073,15.634,2.182,23.196,3.491,4.508-6.254-4.581-15.052-10.689-17.015m-171.678,83.912c12.071,20.578-7.199,47.046,6.326,67.551m118.378,16.87c-1.381-1.745-6.035-3.708-6.908-.8,.145,2.981,6.108,3.054,6.908,1.018m123.759-10.18c-.654-2.618-5.163-3.345-5.744-.581,.218,3.272,5.163,5.526,5.744,.8m131.469-184.839c-1.31-4.072-6.693,.727-5.31,3.345,2.107,1.745,4.727-1.163,5.31-3.127m-196.329,86.166c-4.29-5.308-11.271-10.762-10.689,.582m205.053-5.745c-3.49,.582-6.252,2.545-8.872,4.581-3.854,3.127-2.616,11.634,3.126,9.671,2.111-1.018,4.145-1.018,5.965,.655,8.581,4.581,5.309-14.179,0-14.906m-487.256,9.671c7.126,2.4,13.888,6.98,20.651,9.308M330.497,111.181c-6.472,11.634,10.325,1.309,.218,0m116.994,182.875c7.639-1.745,4.582-15.706,1.31-8.508,.218,3.345-5.378,5.817-1.452,8.508M133.224,481.294c-.509,3.709,5.163,4.581,5.163,.364,1.018-5.308-1.89-8.944-4.944-2.763m-77.949-112.488c-4.363,2.908,1.309,8.798,2.254,2.763-.146-.873,.436-2.981-1.818-2.763m331.72-68.206c6.69,5.672,10.762,11.852-2.036,7.853-3.054-3.199-17.597,5.308-14.761-1.454,3.272-4.872,8.071-7.489,13.816-7.562M203.029,168.043c-.582,2.545,2.545,7.853,5.163,4.945,4.799-5.163-4.581-15.27-5.163-5.163m14.834,224.54c1.018,2.036,3.709,2.618,5.526,1.091-.873-1.891-4.799-4.581-5.526-1.236m212.033-74.968c2.109,7.344,8.945-8.071,0-.218m-137.283,138.883c-1.963,17.015,14.106,4.945,.8-.582m242.353-103.035c-1.452-1.963-4.286-6.18-6.324-2.327-1.237,1.745-3.126,2.545-1.965,4.654,1.237,7.635,11.565,11.78,10.619,1.018m-448.354,49.373c-2.981,0-3.708,4.945-.218,3.999,2.036-.364,3.054-3.781,.364-3.999M23.354,290.711c8.58-.654,5.308,10.98,7.126,16.215,.145,1.963,2.109,3.636,1.6,5.527m29.303-7.49c-4.508,1.745-1.163,5.453,1.236,7.271,3.926,1.018,1.745-6.544-1.018-7.271M316.826,122.67c.364-1.672-1.091-3.781-2.981-3.563-3.417,2.254,2.254,9.962,2.981,3.708m163.022,231.666c4.145,1.018,.874,6.98-2.398,6.108-3.635-.291-.801-6.253,1.965-6.108m-382.113,44.573c-.364,3.054-.364,6.399,.8,9.307,3.272,3.418,5.163-5.963,4.508-8.289,.291-2.69-4.726-5.017-5.526-1.163m454.532-31.34c-.869-.872,.146-2.836-1.816-2.763-3.344,.8-1.965,7.853-6.543,8.29m-381.095,72.132c-.436-2.108-3.999-2.908-3.563-.218,.218,1.745,2.836,1.818,3.563,.364m25.377-255.734c-2.036,1.527-8.434,1.163-8.726,3.199m339.72,46.536c-2.402-1.6-9.382,1.527-6.765,4.363,1.529,.654,6.256-2.327,6.547-4.145m-246.064-98.527c-.727,2.618-.436,8.871-4.363,8.071-5.163-1.309,1.89-13.598,4.363-8.289m96.127,221.195c-1.236-1.018-2.108,.218-3.199,.364m10.762-2.4c-1.018,.145-2.109,.145-2.981,.8M77.671,286.348v3.199m204.689-51.19c-.727,.654-1.6-.291-2.4,.218m116.415-30.685c-.581,.364-.727,1.454-1.818,1.163m155.899,33.666c-2.984,.873-1.747,5.163,.728,4.29,2.18-.8,2.325-4.872-.582-4.29m-485.439,47.555c-36.284,18.397,16.433,45.446,2.763,14.834-2.4-4.654,6.544-13.888-2.545-14.834m349.826,95.691c-2.69,.654-3.854,4.726-.8,5.963,3.781,1.381,4.726-5.745,1.018-5.963m-99.981,37.084c-13.815,2.981,4.872,12.071,8.726,4.363-2.109-3.127-5.308-3.854-8.508-4.363M71.345,194.002c-4.436,2.836-2.254,9.744-3.563,14.252-.072,3.999,6.035,5.163,6.326,.364,0-4.072,2.4-13.234-2.545-14.688M418.553,100.274c-2.472,1.236,.581,6.472,2.763,6.544,2.472-1.745,.727-6.472-2.545-6.544m-149.136,95.11c-3.199,2.763,1.454,12.943,5.745,11.852,2.835-3.49-1.309-11.343-5.527-11.852" fill="none" stroke="#fff" stroke-linecap="round" opacity="0.15" stroke-linejoin="round" stroke-width="2"/>
</svg>