<?xml version="1.0" encoding="UTF-8"?>
<svg id="a"
  xmlns="http://www.w3.org/2000/svg" viewBox="0 0 600 600">
  <path d="M141.718,203.295L16.18,310.218M87.018,156.876l-57.359,124.088m187.552,80.63l-55.365,119.734m-49.139-121.85l44.666,121.368m129.528-115.807l-102.51,95.861m151.891-253.796l88.185,103.779m-406.775,4.896l106.559,46.298m234.938-124.208l-56.574,102.268m157.393-138.171l122.452,50.892m-254.097-45.452l-77.547,86.19m-97.735-95.559l91.449,95.68m-22.726,15.654l-83.35,41.161m122.032-223.333l68.299,74.706m-78.997-32.518l78.273,33.606m185.859,59.596l-60.625,74.646m-86.189-3.808l-73.316,27.32m219.101-99.488l-67.33,35.601M243.684,114.99l-151.045,36.326m305.415,12.935l-63.587,37.414m-84.316,97.674l37.474,60.381m-40.133-241.224v78.877m-1.632,102.449l-25.869,55.667m269.029-65.882l-91.269,32.76m-246.965-113.631l53.189,47.628m376.797-.604l-84.501,32.215M91.068,155.909l55.909,50.348m332.248,24.54c-3.624-2.72-7.979-5.924-11.602-8.704-7.255-5.5-14.506-11.001-21.76-16.501-3.145-2.418-6.286-4.775-9.43-7.193-1.812-1.39-3.687-2.78-5.558-4.17-.423-.302-.91-.665-1.634-.242-1.693,.907-3.746,.121-4.775-1.451-1.21-1.873-.241-4.412,1.147-5.258,1.634-1.028,4.173-.363,5.261,1.33,.965,1.511,1.088,2.962-.304,4.292-.182,.181-.241,.544-.364,.786M127.695,241.797l-22.303,50.711m-13.176-137.989l54.277,38.38m219.284,78.273l25.082,49.079M244.53,117.166l-46.117,37.353m316.959,144.638l-44.486,29.012M194.121,159.173l-41.04,33.243m94.411,10.577v40.194m178.786-48.596l-16.681,65.398m14.023-68.904l-87.641,13.055m-199.035,153.16l21.578,123.907M335.314,206.499l17.105,38.32m-106.378-126.505l-22.908,35.721m-124.934,164.584l13.358,35.721m211.305-43.82l65.821,13.358m-288.126-6.407l32.578,32.759m447.636-94.471l-63.405,42.732M144.861,206.257l-14.687,31.974m269.574-72.349l-16.804,28.831m13.841,130.132l49.379,14.325M28.389,283.985l-12.512,26.897m385.8-22.907l-7.734,31.974m-244.792-120.763l-12.028,150.38m178.909-40.497l-52.705-10.577m-124.39,57.662l24.539,22.545m240.681-213.119l20.431,22.424m29.193,12.693l-21.942-9.61M141.416,369.028l21.215,9.369M432.204,217.137l12.025,86.13m.969,5.138l3.928,27.803m94.956-78.877l-23.576,1.813M181.61,463.559c-5.984,5.621-11.968,11.242-17.951,16.803-1.511,1.389-3.204,2.417-5.259,.725-.786,.604-1.632,1.15-2.297,1.814-1.209,1.147-1.39,3.2-.483,4.593,.846,1.389,2.78,2.116,4.473,1.63,1.39-.36,2.72-2.294,2.659-3.806-.061-1.27-1.028-2.176-1.451-3.327M245.014,168.058l-19.765-9.248m18.979,139.561l-19.462,9.55m183.684-44.486l-4.956,19.1m-193.415-19.764l34.271,31.128m111.213-44.123l8.764,19.1m8.039-52.705l-10.517,18.435m-81.718,129.648l-66.909,10.698m369.362-117.923c1.147,.604,2.053,1.693,3.627,1.511,1.871-.181,2.959-.907,3.627-2.841,.483-1.451-.123-2.901-1.634-3.929-1.028-.725-3.082-1.088-4.411,.181-.668,.604-1.634,.967-1.816,2.055m-442.073,98.883l140.649,8.945m135.994-140.225s-31.369-5.984-37.896-7.011c-6.165-.967-12.27-2.418-18.435-3.385-4.593-.725-9.127-1.813-13.66-2.78-2.659-.544-5.259-.967-7.918-1.511-.121,0-.242,.06-.302,0-.846-.544-1.873,.423-2.659-.302-.846-.846,.423-1.753,.182-2.418-.484-1.451-1.33-2.78-2.841-3.264-1.511-.484-3.022-.182-4.11,.967-.967,1.028-1.148,2.357-.725,3.748,.725,2.297,2.115,2.599,4.775,2.478,.302,0,.665-.121,.967-.182m-125.478,166.82l-36.568,5.621M17.812,313.965c-.302-.423-.544-.846-.846-1.33-.967-1.632-2.115-2.236-3.808-1.994-1.39,.181-2.901,1.451-3.083,2.78-.242,1.572,.06,3.083,1.451,4.11,1.995,1.511,5.682,.121,6.044-2.478,.181-1.39,.907-1.451,1.874-1.451,3.203,.061,6.346,.242,9.55,.302,1.934,.061,3.868,0,5.742,0,8.039,.061,16.017,.121,24.056,.181,7.918,.061,15.836,0,23.754,.182,3.566,.06,7.132,.06,10.698,.121m392.935-76.882l26.895,19.16m-418.621-9.55l2.962,63.222M404.035,165.398c.364-.544,.846-1.088,1.151-1.632,.847-1.692,.178-3.687-1.634-4.775-1.27-.725-3.323-.907-4.775,.786-1.088,1.33-1.147,3.687,0,4.956,1.21,1.33,3.022,1.572,5.138,.665m-314.42-8.402l3.143,59.838m343.188,8.704l146.15,28.408M167.406,384.32l-8.401,95.68m-4.896-284.924l140.528,7.555m-201.998-50.409c-.967-1.148-1.511-2.659-3.445-2.841-2.297-.181-4.11,1.027-4.292,3.143-.181,2.478,1.148,3.808,3.445,4.17,1.753,.302,3.989-1.269,4.473-3.687m157.814-36.024c1.632-2.357,1.269-4.412-1.149-5.742-1.873-1.028-4.049-.544-5.077,1.632-.725,1.511-.423,3.324,.846,4.473,1.088,1.028,3.203,1.269,4.473,.484,.362-.181,.665-.423,.967-.665m170.809,193.535s-21.337,10.819-23.754,11.665c-.783,.302-1.025,.847-1.147,1.511-.241,1.693-1.452,3.204-2.781,3.445-1.994,.363-3.386-.181-4.474-1.813-.783-1.269-.423-3.445,.847-4.594,1.329-1.269,3.568-1.33,4.956-.121,.665,.544,1.088,1.33,1.693,1.934m56.938,16.44c.301,2.115-.787,4.17-2.48,4.594-1.752,.483-3.564-.242-4.474-1.813-1.088-1.934-.542-3.929,1.333-5.077,1.63-1.028,3.869-.423,5.075,1.33,.182,.242,.304,.544,.483,.846m-349.897-41.886l-5.439,13.176m282.264-110.005l-6.951,11.182m63.465,114.356l9.85,11.665M92.821,153.068l124.39,4.292m211.485,37.232l2.662,20.067m33.786,117.137l-11.183,7.253m-65.095-13.72c-2.298,.604-4.411,1.632-6.586,2.478-3.93,1.511-7.92,2.901-11.848,4.291m-76.821,28.831c.907,2.055,0,4.533-1.995,5.259-1.753,.665-4.473-.544-5.138-2.297-.483-1.269,.302-3.627,1.511-4.473,1.33-.906,3.445-.846,4.594,.182,.363,.363,.665,.786,.967,1.148m-160.414-10.335c-1.33,1.572-1.632,3.324-.604,5.077,.907,1.692,2.659,1.632,4.231,1.451,1.33-.121,2.599-1.632,2.78-3.445,.181-1.632-.786-2.659-2.115-3.445-1.451-.846-2.78-.423-4.11,.182m84.196-192.69c.363,.544,.121,1.209,.484,1.813,.967,1.692,2.357,2.357,4.473,1.934,1.33-.242,2.78-1.994,2.78-3.445,.061-1.572-1.088-3.264-2.478-3.627-2.418-.665-3.506-.302-4.594,1.632-.242,.484-.483,.967-.725,1.451m-45.754,223.092c-.604-1.813-1.269-3.445-3.627-3.687-1.209-.121-2.115,.182-2.962,.907-.483,.423-.846,.967-1.451,1.209,.181,.484,.302,1.028,.302,1.572,.061,2.115,1.148,3.385,3.143,3.627,2.297,.302,3.627-.725,4.292-2.962,.061-.182-.121-.423,.181-.484m269.33-80.75l-9.189,4.956m-170.868-6.286l-8.885-2.297m-1.148-179.029l7.374,8.401M98.562,310.52c.967,.907,2.237,1.511,2.66,2.962,.423,1.39,0,2.539-.907,3.445-.665,.665-1.33,1.632-2.78,1.269-1.209-.242-2.357-.363-3.083-1.451-.483-.665-.967-1.511-.786-2.357,.423-2.538,1.511-3.687,4.775-3.868m328.319,4.11l8.706,9.429m-187.975-77.245v45.271m49.079,58.145l-4.291,8.885M148.125,199.004c.967-.061,1.994,0,2.962-.181,1.33-.242,2.841-2.418,2.78-3.748-.061-1.088-1.693-3.082-2.78-3.445-1.511-.483-3.506,.121-4.473,1.33-.665,.846-.786,3.566,.061,4.413,1.511,1.511,1.39,2.901,.302,4.473m373.411,57.299c-.665-1.995-1.634-3.627-4.051-3.808-1.934-.121-3.687,1.451-3.806,3.445-.123,2.357,1.207,3.808,3.263,3.989,2.658,.242,3.687-1.39,4.47-3.506m-98.279-36.386l8.224,1.692m149.774,29.617l-33.303,3.143M92.639,219.796l.665,22.363m192.931,121.247l-5.682,.665m19.644-161.078l27.561,1.632m-26.594,138.05l-2.539,4.896m-54.277-53.491c-.363,1.632-.786,3.203,.665,4.593,1.994,1.934,5.198,1.269,6.286-1.33,.665-1.511,.181-3.204-1.149-4.292-1.088-.907-3.324-1.088-4.473-.302-.423,.302-.786,.665-1.148,.967m184.592,12.27l-3.568,1.813m-291.331,58.81l-3.264-1.692m74.223-106.74l2.78,2.418" fill="none" stroke="#d4a411" opacity="0.3" stroke-linecap="round" stroke-linejoin="round" stroke-width="2"/>
</svg>