<?xml version="1.0" encoding="UTF-8"?>
<svg id="a"
  xmlns="http://www.w3.org/2000/svg" viewBox="0 0 600 600">
  <path d="M137.187,394.819c-39.479,61.846-77.632,126.867-120.82,185.36m314.856-121.397c-36.476,14.028-71.803,31.055-108.279,45.171m-88.584-219.238c-15.367,36.878-28.791,75.432-45.748,111.34m22.168,156.069c-30.382,11.116-59.35,26.379-89.732,37.054m-7.066-5.822c4.857-15.528,11.923-30.261,17.84-45.436m186.705-32.026c-34.709,15.44-70.036,29.556-104.922,44.466m156.5-9.617c-55.817,10.234-111.458,22.674-167.01,34.408m143.429-142.307c-23.051,15.175-45.749,30.879-68.623,46.406m233.691,37.231c4.239,22.674,9.891,45.612,11.834,68.551M70.772,269.364c-10.422,57.611-22.168,115.045-32.943,172.567m43.541-249.499c-21.991-8.558-47.957-10.058-71.715-12.969M384.655,440.961c8.126,20.997,16.693,43.318,24.111,64.933m-6.27-77.637c-20.578,7.94-41.068,18.791-61.646,25.232m-263.278,94.224c-18.724,14.028-40.45,25.497-57.76,40.671m40.891-119.721c-9.98,18.087-15.986,39.702-24.817,58.934m124.883,66.345c-47.781-.352-96.797,1.5-143.959,.265M231.069,258.248c17.399,15.704,40.185,28.937,55.376,47.112M6.564,156.084c-3.268,32.114-.177,67.403-.265,100.487m443.535,335.872c-29.321-1.941-58.29,2.294-87.435,.617m-68.535-280.907c16.339,15.969,30.735,33.525,44.512,51.699M157.412,230.104c-8.214,16.586-14.308,34.143-21.462,51.17m71.803,110.722c-14.484,15.792-30.205,30.614-45.042,46.142m214.437,79.843c-34.179,6.793-68.447,14.469-102.538,21.174m-169.659-42.171c-15.721,15.615-30.912,31.849-46.721,47.376M7.271,394.819c.265,46.495,.177,92.989,1.236,139.484M89.584,194.285c23.405,3.264,45.396,14.557,67.387,23.115m-36.122,300.581c-13.071,8.911-25.878,18.439-39.214,26.909m3.091-137.807c-7.595,19.233-15.986,38.554-22.875,57.963m-12.011,87.078c-10.687,11.557-22.698,26.556-35.857,34.849M5.328,272.981c2.12,38.113,.883,78.608,1.943,117.604m80.812,187.477c-23.228,3.794-47.604,12.881-70.478,13.234m19.253-145.924c-6.712,47.642-20.313,95.018-25.966,142.836m157.119-101.988c-11.128,8.293-24.288,14.381-34.179,24.085m222.298,82.226c-29.587-2.47-58.909,.794-88.937,.882m-4.328-.176c-30.205,.441-60.321,.617-90.526,.441m254.622-86.284c-14.749,3.353-29.587,6.088-44.248,9.617m-217.616-164.981c-5.035,10.852-13.778,19.763-18.282,30.791m219.03-31.761c-9.804,7.235-20.314,13.41-30.117,20.645m-29.057-79.755c-8.39,8.557-17.222,16.586-25.259,25.496m46.897,59.376c-9.45,6.44-18.9,12.792-28.438,19.233m-109.251-83.461c-4.769,9.528-12.099,17.733-16.339,27.438m35.151-56.287c-4.415,9.087-12.452,17.468-15.897,26.467m73.393,22.144c-8.037,8.47-17.399,16.146-24.288,25.497m101.832,14.91c5.21,8.117,10.863,16.057,15.897,24.262M88.612,178.493c-1.59,8.028-3.18,16.057-4.858,24.085m160.122,28.055c-6.624,11.293-14.573,21.615-21.197,32.908m-56.347-42.083c6.8,5.029,17.222,6.793,22.345,12.704m-61.558,239.089c-5.035,7.852-12.983,13.675-19.254,20.645m-26.495-279.408c-3.709,16.498-5.299,34.937-10.068,50.465m297.457,146.982c3.709,6.44,7.242,12.969,10.51,19.674M203.161,240.956c6.447,3.97,12.718,8.822,19.253,12.263m213.996,326.784c3.798,7.94,12.983,9.44,20.579,11.646M169.512,198.608c-4.151,9.352-6.624,19.674-12.012,28.408m1.855,214.474c-4.239,4.853-9.892,8.734-12.983,14.469M6.034,154.407c2.208,6.176,4.063,12.881,9.627,17.027m-6.977,367.632c.177,15.792-1.59,32.025,.707,47.641m270.785-176.449c-5.3,2.029-9.539,6.44-14.485,9.352m195.449,172.126c-2.826-.088-5.652-.177-8.39-.265m2.65,.088c-8.126,2.118-14.043,6-17.046,12.44m-201.455-242.353c-2.473,4.676-6.977,7.94-10.333,11.999m-4.416-108.605c-2.826,4.235-6.359,7.94-7.948,12.969m81.871,120.691c-3.974,2.735-7.86,5.47-11.835,8.205m-62.529-98.106c1.236,3.529,2.384,7.058,3.621,10.587m-2.65,57.876c-2.738,3.352-7.154,5.911-8.92,9.881m-32.766-122.632c-1.502,3.352-2.826,6.793-4.593,10.057m92.911,179.185c-3.179,2.029-6.888,3.44-9.626,5.999m-112.342-101.723c-2.296,2.117-1.236,6.44-2.208,9.352M8.684,119.294c-3.621,2.117-1.325,15.175-7.684,10.058M296.072,440.079c-3.356,1.676-6.889,3.176-10.068,5.028m-95.826-183.507l-2.385,10.587m-28.438,34.672c-1.502,3.265-3.71,6.264-4.858,9.617m-14.396,87.96c-.176,3.176-1.236,6.44-.706,9.616m43.806-123.073c-.707,3.176-1.413,6.44-2.208,9.617m155.794,116.368c-2.12,2.911-6.006,3.529-8.92,5.558m-23.846-76.755c-2.915-2.382-5.123-6.176-8.391-7.676m-101.654-91.312c-1.06,2.823-.707,6.705-2.915,8.91m-24.464,36.702c-1.413,3.088-2.826,6.175-4.328,9.175m43.806-36.084c1.148,3,2.208,5.911,3.356,8.911m99.359,158.451c-2.738,1.588-6.094,2.382-8.214,4.853m-89.202-157.746c.707,2.823,3.092,5.735,2.65,8.646m-13.248-37.495c.972,2.911,1.943,5.734,2.915,8.646m-65.533,158.628c-.706,2.117,.707,7.234-1.413,7.675m79.928-131.19c.972,2.911,1.943,5.735,2.915,8.646m-70.831,38.907c-.442,2.911-.707,5.823-1.414,8.646m85.228-13.41c.706,3.264,1.678,6.44,2.914,9.616m-46.72-95.723c-1.678,2.646-3.356,5.205-4.858,7.94m-38.948,74.726c-1.325,2.735-2.738,5.47-4.063,8.205m71.891,49.053c2.473,2.558,4.946,5.117,7.419,7.675m-40.891-93.253c-.619,2.647-.972,5.382-1.237,8.205m-42.746,128.367c-.442,2.735-.795,5.47-1.236,8.205m63.501-209.446c.441,1.324,.795,2.735,1.236,4.059m76.042,71.903c2.385,2.205,4.77,4.411,7.243,6.528m-35.593,101.9c2.385,2.294,4.858,4.676,7.242,6.97m-77.102,71.903c-2.738,1.147-5.476,2.205-7.949,3.882m-35.327-50.994c-.53,2.558-.442,5.293-1.413,7.675m125.854-28.408c2.12,2.382,4.328,4.676,6.271,7.234m44.512-93.782c2.208,2.382,4.328,4.852,6.536,7.234m15.544,14.91c2.296,2.294,4.239,5.117,7.242,6.529m-17.84-18.086c1.059,2.999,4.062,4.764,6.005,7.234m-123.911-124.573c1.413,2.558,3.445,4.499,5.564,6.528m-9.185,241.648c-2.208,1.588-4.239,3.617-6.977,4.323m158.179-85.402c-2.473,1.324-4.946,2.735-7.419,4.059m-168.512-134.808c-1.325,2.382-2.561,4.853-3.886,7.235m67.122,65.109c.972,2.382,1.943,4.853,2.915,7.235m27.908,78.167c.884,2.382,1.767,4.852,2.65,7.234m52.019-19.321c-2.384,1.323-4.857,2.559-7.242,3.882m-90.526-25.762c2.12,2.206,4.151,4.5,6.271,6.706m-89.026-20.116c-.353,2.382-.618,4.853-.971,7.235m104.481-21.704c.794,2.383,1.589,4.853,2.384,7.235m-148.728,193.3c-2.65-.617-4.681,1.588-7.242,1.235m39.743-107.546c-.706,1.765,.088,5.823-1.678,6.264m-4.328,44.73c-3.356,1.324-.353,12.175,1.414,3.353m37.535-155.805c-.618,2.559-1.325,5.117-1.943,7.676m-42.835,6.352c-1.324,2.029-1.678,5.293-3.886,6.528m70.302-110.457c-.53,2.382-1.148,4.853-1.678,7.235m-25.259,107.193c-2.296,1.852-1.678,5.734-2.915,8.381m102.538,11.381c.795,2.382,1.59,4.852,2.385,7.234m-24.994-5.293c1.148,2.823,3.797,4.676,5.74,6.97m-86.64-16.146c-.442,2.294-.972,4.676-1.413,6.97m-26.496-43.23c-1.325,2.206-2.826,4.323-4.063,6.529m126.826,13.41c.795,2.205,1.59,4.499,2.385,6.705m-42.835,90.695c-1.678,1.235-5.652,1.411-5.741,3.617m-67.387-58.757c-.353,2.205-.618,4.499-.971,6.705m225.565-33.791c-2.119,1.324-4.151,2.735-6.27,4.059m-168.247,90.43c-2.208,.971-4.328,2.294-6.712,2.911m-65.974-108.78c-.707,2.293-1.06,4.675-3.356,5.999m83.461-159.158c-1.237,2.206-2.385,4.5-3.621,6.706m-11.305,110.898c-1.855-1.5-3.003-4.411-5.564-4.588m-18.017-19.938c1.766,1.94,3.532,3.881,5.299,5.734m-64.738,88.048c-1.148,2.559-1.855,5.294-3.356,7.676m249.324-50.729c1.943,1.941,3.886,3.881,5.74,5.734m134.598,199.829c-1.237-1.764-3.533-4.852-5.034-1.412M108.572,403.465c-1.06,2.647-1.943,5.382-3.621,7.676m122.762-85.578c.795,2.206,1.59,4.323,2.385,6.529m24.817,129.072c-1.854,1.5-3.886,2.824-6.005,3.882m-56.347-94.224c2.031,2.118,3.974,4.147,6.005,6.264m65.268,47.112c-.795,3.088,2.119,5.117,1.678,8.205m1.236-123.867c1.767,1.588,3.533,3.176,5.299,4.852M5.327,144.35c-.265,3.352-.883,6.617,.707,9.705m235.634,210.503c.794,2.118,1.589,4.147,2.384,6.264m-82.754,10.587c-.442,2.118-.972,4.147-1.413,6.264m7.683-31.76c-.441,2.117-.971,4.146-1.413,6.263m-1.06,148.571c-2.119,.97-4.151,1.941-6.27,2.911m90.35-223.12c1.678,1.853,3.356,3.705,5.034,5.558m-10.333,171.862c-2.032,1.058-3.975,2.117-6.006,3.088m17.311-70.404c.529,2.029,1.148,3.97,1.678,6m29.851-78.609c1.678,1.853,3.356,3.706,5.034,5.559m-58.467,140.1c-2.031,.971-3.974,1.941-6.005,2.912m35.327-172.127c-1.854-1.499-3.179-4.146-5.564-4.852m-35.592,180.596c-2.385,1.235-4.858,2.382-7.242,3.617m-81.783-125.102c-1.149,2.029-2.208,3.97-3.357,5.999m45.661-34.849c-1.943,.794-1.766,4.941-2.914,6.97m-34.091,11.116c-.972,2.294-1.943,4.676-2.915,6.97m-32.236,61.051c-1.06,1.941-2.12,3.882-3.091,5.735m50.96-92.548c-.442,2.471-.795,4.941-1.237,7.411m63.148-82.402c1.59,1.853,3.179,3.706,4.857,5.559m-40.538,58.669c-.53,2.206-1.148,4.323-1.678,6.529m176.902,68.727c1.767,1.588,3.533,3.176,5.299,4.852m-153.497-16.41c1.678,1.588,2.914,3.97,5.299,4.588m21.638-114.957c.706,2.206,2.649,3.264,4.062,4.852m252.945,308.169c-4.416,2.735-7.242,8.47,.265,8.911M90.555,439.108c-.971,1.853-1.943,3.706-2.914,5.558m39.214,62.728c-.972,2.47-.089,7.587-2.208,8.646m20.313-66.874c-.442,1.764-.795,3.529-1.237,5.293m115.786-31.761c-1.678,1.853-3.533,3.529-5.741,4.853m-14.749-146.718c1.678,1.676,3.356,3.353,5.034,5.029m-60.41,76.05c1.679,1.411,3.357,2.911,5.035,4.323m-122.675,120.691c-.972,1.5-1.943,3.088-2.915,4.588m91.499,24.967c-1.678,.794-3.357,1.588-5.035,2.382m-32.589,17.822l-5.034,2.382m18.105-56.729c-.795,2.206,.177,7.147-1.943,7.676m12.983-21.351c-.972,1.412-1.767,2.824-1.943,4.588m-87.612,98.282c-1.413,.883-2.914,1.765-4.328,2.647m90.527-111.516c-1.149,1.588-2.208,3.176-3.357,4.853m-2.914,41.024c-1.413,.971-1.413,2.647-1.943,4.058m-50.253-52.846c.442,2.117-1.766,3.088-2.208,4.852m70.301-24.526c-.353,1.588-.618,3.176-.971,4.852m-61.646,3.794c.353,2.382-1.59,3.793-2.385,5.734m60.145,4.853c-.353,1.588-.618,3.176-.972,4.852M82.341,206.372c1.148,1.235-.088,3-.265,4.588m57.054,266.086c-1.59-.177-1.06,2.647-1.678,3.882m-67.652-2.206c-.972,1.412-1.943,2.911-2.915,4.323m-9.538,20.733c-.972,1.411-1.943,2.911-2.915,4.323m-15.897,30.967c-.972,1.235-1.148,3.617-2.915,3.882m446.716,47.376c-1.413,1.324-2.915,2.559-4.328,3.882M45.777,526.098c-1.59-.088-1.678,2.294-2.914,3.088m106.865-99.253c-.353,1.411-.618,2.911-.972,4.323m-74.364,35.554c-.707,1.412-1.413,2.912-2.208,4.323m80.459-56.199c-.354,1.412-.619,2.912-.972,4.323m-18.282,105.34c-1.413,.706-2.914,1.412-4.328,2.206m-87.435,3c-.883,1.147-.795,2.999-2.649,3.352M2.678,120c1.148,1.235,2.208,2.382,3.356,3.617m12.011,456.386c0,2.47-1.766,3.529-3.621,4.588m119.937-90.695c-.354,1.323-.619,2.558-.972,3.882m-72.686-1.677c-.618,1.324-1.325,2.559-1.943,3.882m-7.949,14.116c-.618,1.324-1.325,2.559-1.943,3.882m174.076-253.205c1.148,1.147,2.208,2.206,3.356,3.353m-83.284,253.205c-1.06,1.676-2.65,2.47-4.328,3.352m26.937-181.037c2.915,1.853,5.476,5.205,2.385,7.676m-109.78,217.385c-1.325,.441-2.561,.794-3.886,1.235m52.991-28.408c-1.236,.618-2.384,1.323-3.621,1.941m-6.359,3.088c-1.237,.617-2.385,1.323-3.621,1.941m185.999-100.047c-1.236,.618-2.385,1.323-3.621,1.941m-102.273,31.673c-.795,.882-2.473,.97-2.385,2.646M6.564,261.6c.088,1.059-1.413,2.206,.265,3.088m70.92,292.2c-.971,1.5-2.296,2.117-4.063,1.941m54.404-62.992c-.353,2.117-.618,4.146-.971,6.264m-99.889,57.698c-.442,1.059-.972,2.118-1.413,3.088m103.244-46.847c-.265,1.588-.441,3.176-.706,4.852m-97.504,31.232c.442,1.941-1.06,3-1.943,4.323m2.914,25.673c-.972,.442-1.943,.794-2.914,1.236m115.521-210.593c-.442,3.882-1.501,7.676-1.413,11.558m-57.761,168.244c-.353,1.853-2.208,1.853-3.356,2.647m-9.627,5.999c-1.855-.882-2.826,1.235-4.328,1.412m-30.647,15.88c-.707,.618-1.413,1.324-2.208,1.941m-14.131-8.205c-.53,.706-1.148,1.412-1.678,2.206m36.564-26.909c-.883,.706-1.766,1.412-2.65,2.206m-29.852,35.731c1.06,1.5,1.943-.088,2.915-.265M89.584,171.258c-.088,.618-.177,1.323-.265,1.941m183.791,284.348c2.829,0,5.122-2.291,5.122-5.117s-2.293-5.117-5.122-5.117-5.123,2.291-5.123,5.117,2.294,5.117,5.123,5.117Zm-147.669,77.991c2.83,0,5.123-2.291,5.123-5.117s-2.293-5.117-5.123-5.117-5.122,2.291-5.122,5.117,2.293,5.117,5.122,5.117Zm-112.871,60.522c2.829,0,5.122-2.291,5.122-5.117s-2.293-5.117-5.122-5.117-5.122,2.291-5.122,5.117,2.293,5.117,5.122,5.117ZM150.611,331.827c2.829,0,5.123-2.291,5.123-5.117s-2.294-5.117-5.123-5.117-5.122,2.291-5.122,5.117,2.293,5.117,5.122,5.117Zm44.866-89.813c2.829,0,5.123-2.291,5.123-5.117s-2.294-5.117-5.123-5.117-5.122,2.291-5.122,5.117,2.293,5.117,5.122,5.117Zm168.6,166.392c2.829,0,5.123-2.291,5.123-5.117s-2.294-5.117-5.123-5.117-5.122,2.291-5.122,5.117,2.293,5.117,5.122,5.117Z" fill="none" stroke="#e3e6e8" stroke-miterlimit="10" stroke-width="2"/>
</svg>