<?xml version="1.0" encoding="UTF-8"?>
<svg id="a"
  xmlns="http://www.w3.org/2000/svg" viewBox="0 0 600 600">
  <path d="M54.02,414.049c-1.517-2.181-3.887-3.129-5.973-4.362-8.059-4.835-15.645-10.429-23.799-14.98-1.991-1.043-3.793-2.276-5.594-3.509-2.845-1.801-3.698-1.991-6.732,.095-9.387,6.258-18.773,12.421-28.16,18.584-7.016,4.361-13.938,9.007-20.954,13.464-1.801,1.137-1.043,3.129-.948,4.646,.379,10.809,.474,21.712,0,32.521-.19,4.551,0,9.102-.095,13.748-.095,2.371-.664,5.025,.284,7.491,.19,.569-.474,1.327-.379,1.517,.379,1.517-.095,3.223,1.896,4.551,11.567,6.921,22.756,14.317,34.133,21.333m296.96-162.797c-15.739,11.093-32.047,21.333-48.071,32.047-3.982,2.75-6.448,2.371-11.093-.758-6.353-4.172-12.8-8.154-19.343-11.947-2.56-1.517-5.309-2.939-7.49-5.12-.474-.474-1.043-.379-1.517-.569-1.138-.379-1.707-1.232-1.612-2.56,.759-12.041,.569-24.083,.474-36.124,0-2.655,.474-5.31-.189-8.059-.285-1.138,.284-2.276,1.327-2.845,4.551-2.275,8.249-5.973,12.895-8.059m-16.877-248.794c-5.026-2.845-9.956-5.973-14.792-9.197-1.611-1.043-3.508-1.138-5.404,.19-5.878,4.077-11.852,7.964-17.825,11.947-5.12,3.319-10.24,6.732-15.36,9.956-3.413,2.181-7.111,4.077-10.24,6.732-1.612,1.422-3.508,2.655-5.405,3.603-1.422,.664-1.801,1.612-1.801,2.939,.095,9.197,.284,18.394,.284,27.686m17.256,269.369c-10.05,6.826-20.006,13.843-30.246,20.29-5.973,3.793-12.041,7.585-17.73,11.757-3.603,2.655-6.922,1.991-10.335-.284-3.698-2.371-7.396-4.646-11.093-7.017m232.012-92.444c-3.129-.948-5.784-2.939-8.533-4.741-7.965-5.12-16.214-9.861-24.178-15.075-3.982-2.655-8.06-5.12-12.231-7.491-1.897-1.043-3.793-2.275-5.594-3.698-1.517-1.232-3.509-1.517-5.405-.284-8.249,5.594-16.498,11.188-24.841,16.782M12.112,208.396c-3.129-.949-5.784-2.94-8.533-4.741-7.964-5.215-16.213-9.766-24.178-15.076-3.982-2.655-8.059-5.12-12.231-7.49-1.896-1.043-3.793-2.276-5.594-3.698-1.517-1.233-3.508-1.612-5.404-.284-2.655,1.896-5.31,3.792-8.059,5.689m426.571,202.524c-5.499-3.319-10.998-6.827-16.592-10.05-9.102-5.31-17.636-11.473-26.833-16.688-1.801-1.043-3.698-1.991-5.309-3.508-4.172-3.603-7.965,3.034-12.137,3.793-1.137,.284-.569,1.611-1.327,2.086m-243.769,124.397c-15.739,11.093-32.047,21.333-48.071,32.047-4.172,2.844-7.68,2.465-10.809-1.327M214.257,155.11c-6.542-4.552-13.179-8.818-20.101-12.8-1.896-1.043-3.792-2.276-5.499-3.698-1.517-1.233-3.508-1.517-5.404-.285-8.06,5.405-16.214,10.809-24.273,16.308-.379,.285-.664,.664-1.043,1.043m231.538,106.667c-.19-1.991-.759-4.077-.38-5.878,.285-1.328,.38-2.371-.094-3.698-.664-1.896,.094-3.982,.189-5.879,.095-2.18-.664-4.266-.095-6.447,.569-1.991,.38-4.077,.569-6.353-1.896-1.232-3.318,.38-4.551,1.233-9.292,6.637-18.963,12.705-28.444,19.058-6.543,4.361-13.274,8.438-19.911,12.705-.949,.664-1.328,1.612-1.328,2.844,.095,8.818,.285,17.541,.285,26.454,2.275,1.043,3.603-1.138,5.12-1.992,3.508-1.896,6.731-4.361,10.145-6.637,8.438-5.499,16.877-10.998,25.315-16.592M41.314,315.062c-5.499-3.413-10.999-6.921-16.593-10.335-1.896-1.137-3.603-.853-5.405,.474-11.283,7.491-22.376,15.36-34.038,22.282M341.404,75.086c-18.489,12.8-37.073,25.695-55.562,38.495m-45.227,136.912c-11.757,7.68-23.419,15.455-35.271,22.945-3.413,2.086-7.111,4.172-10.24,6.922-1.612,1.422-3.697,2.56-5.689,3.603-1.517,.758-1.896,1.801-1.706,3.224,.379,3.223,.189,6.352,.189,9.576,0,7.585,.285,15.17-.094,22.755-.285,5.026,.094,9.956-.38,14.981-.189,2.655,.38,5.31,.38,7.965,0,1.043-.569,2.086-.474,3.129,.284,2.844,2.939,3.603,4.645,5.214m133.121-58.974c-.095,.379-.285,.663-.285,1.042-.095,8.344-.189,16.688-.284,25.032,0,2.465-.285,5.025-.095,7.49,.19,2.655-.379,5.404,.379,8.059,.095,.38-.189,.948-.189,1.328-.095,1.706-.38,3.413,1.706,4.74,14.128,8.818,28.16,17.92,42.477,26.549,3.224,1.896,6.258,4.171,9.766,5.499M118.873,225.178c-.19-2.086-.284-4.267-.095-6.163,.285-2.655-.663-5.215-.095-7.775,.38-1.802-.094-3.508,.38-5.215,.284-1.043-.19-1.991-1.043-2.56-4.267-2.655-8.628-5.215-12.895-7.775-1.802-1.137-3.698-2.18-5.405-3.413-2.749-1.991-3.697-1.991-6.731,0-9.387,6.258-18.774,12.421-28.16,18.584m402.394,2.655c-17.446,12.041-35.176,23.703-53.286,34.797m-78.791,70.921c.379,1.138,.474,2.276,.379,3.603-.189,2.465-.189,5.025,.285,7.49,.379,1.612,2.465,2.181,3.792,3.035,12.137,7.395,24.178,14.98,36.125,22.565,3.223,1.992,6.542,3.983,9.86,5.974,.474,.284,1.043,.379,1.517,.569m-91.686-201.956c-.948-.379-1.422,.285-2.086,.759-9.481,6.352-18.963,12.61-28.444,18.868-6.732,4.551-13.653,8.723-20.385,13.274-.759,.569-1.612,.569-2.371,.948m227.461,193.043c-.379,2.749-.474,5.499,.095,8.249,.379,1.896,2.465,2.37,3.888,3.318,3.318,2.276,6.921,4.172,10.24,6.258,12.231,7.585,24.272,15.55,36.693,22.756M-77.014,199.578c.19,1.043,.569,1.801,1.517,2.37,6.068,3.698,12.042,7.585,18.11,11.378,8.154,5.12,16.308,10.24,24.557,15.17,2.276,1.328,4.362,3.129,6.921,3.888M291.816,79.732c-13.085,9.102-26.454,17.825-39.917,26.264-2.75,1.707-5.594,3.413-8.154,5.5-1.043,.853-2.276,1.137-3.603,.569m33.564,273.825c-3.413,1.517-3.888,4.172-3.793,7.775,.38,10.24,.474,20.48,0,30.72-.189,4.551,.095,9.102-.189,13.748-.19,2.56-.38,5.309,.284,7.964,.19,.854-.474,1.897-.379,2.845,.284,2.655,2.56,3.697,4.361,4.835,3.319,2.181,6.922,4.077,10.335,6.258,11.852,7.396,23.609,15.076,35.651,22.187m56.793-32.522c-15.834,10.999-32.047,21.334-48.071,32.048-.569,.379-1.327,.379-2.086,.569M239.288,139.086c-13.748,9.861-27.875,19.058-42.287,27.781-2.56,1.517-5.12,3.413-7.585,5.12m386.939,222.909c-10.051,6.827-20.006,13.843-30.246,20.385-6.068,3.888-12.231,7.68-18.015,11.947-.284,.19-.853,.19-1.233,.285m58.88-23.325c-8.343,5.025-16.118,10.904-24.462,15.929-8.249,5.215-16.498,10.335-24.557,15.834m-305.683-45.416c-6.068,4.741-12.8,8.533-19.058,12.989-5.499,3.888-11.377,7.301-16.972,11.094-2.939,2.086-5.973,4.361-9.386,5.878-.948,.38-1.612,1.328-2.371,1.991m-55.561-121.552c-1.991-3.034-5.594-3.982-8.344-5.974-6.637-4.74-13.653-8.723-20.669-12.989-1.612-1.138-3.414-1.043-5.12,.189-3.793,2.655-7.775,5.12-11.568,7.775-.569,.38-.948,.474-1.612,.474m-101.547,3.508c-5.31,4.362-11.473,7.586-17.067,11.568-1.422,1.043-3.318,.758-4.836-.19-6.068-3.698-12.042-7.49-18.11-11.093-7.68-4.456-14.791-9.766-22.471-14.222-2.37-1.423-4.551-3.319-7.206-4.172m435.389-103.633c14.128,9.292,28.824,17.731,42.856,27.117m55.088,129.991c-10.05,6.827-20.195,13.654-30.246,20.386-1.327,.853-3.129,.948-3.887,2.56m-364.942-31.763c-.853,1.991-.284,3.982-.284,5.973,0,8.154,.379,16.403-.095,24.557-.285,4.646,.284,9.292-.285,13.938-.284,2.655,.285,5.309,.379,7.964,0,1.043-.569,2.086-.474,3.129,.19,2.655,2.56,3.698,4.362,4.836,3.413,2.275,7.016,4.456,10.619,6.447,6.163,3.413,11.662,8.059,18.109,11.093m237.701-27.78c-.853-3.129,.758-6.543-1.043-9.671-3.224,1.232-5.689,3.603-8.533,5.309-5.689,3.414-10.999,7.396-16.688,10.714-2.56,1.517-5.12,3.224-7.585,5.025M135.94,236.745c4.93,3.414,10.145,6.353,15.076,9.671,4.171,2.75,8.438,5.5,12.8,7.965,4.551,2.56,8.817,5.499,13.274,8.154,2.18,1.232,4.077,3.034,6.637,3.698m338.583,32.806c-11.757,7.68-23.419,15.454-35.271,22.945-3.508,2.086-7.111,4.172-10.24,6.921-1.612,1.422-3.698,2.56-5.689,3.603-1.517,.759-1.896,1.802-1.707,3.224,.569,10.809,.095,21.712,.19,32.521M-2.11,116.899c7.206,4.457,14.412,9.008,21.713,13.369,3.319,1.991,6.353,4.362,10.05,5.689m38.779,285.772c-4.172-1.517-7.68-4.172-11.283-6.542-1.896-1.233-3.034-1.043-4.741,.094-8.913,5.974-18.015,11.568-26.833,17.636m468.86-114.536c4.456,3.508,9.481,5.973,14.222,9.007,4.835,3.129,9.766,5.879,14.696,8.818M56.106,295.91c12.421,8.248,25.221,15.928,37.926,23.608m111.976,40.202c-.095,.19-.19,.379-.285,.474-.379,3.888,.19,7.775-.189,11.662-.19,2.56,2.465,3.698,4.266,4.836,12.137,7.301,24.083,15.075,36.22,22.471,4.456,2.75,8.722,5.879,13.653,7.775M12.396,271.921c-9.387,6.258-18.773,12.611-28.16,18.869m163.556,21.902c-6.068-3.793-12.136-7.491-18.11-11.378-1.138-.758-1.706-.379-2.655,.285-3.508,2.465-7.3,4.456-10.714,6.921-3.413,2.37-7.111,4.172-10.24,7.016-1.706,1.517-3.887,2.465-5.878,3.698m43.52-171.804c13.274,8.343,26.264,16.971,39.822,24.841m-27.497-16.118c-5.119,4.077-11.093,7.016-16.308,10.998-1.801,1.328-3.697,2.465-5.689,3.603-.948,.569-1.801,1.233-1.706,2.181,.379,2.749,0,5.499,.189,8.249M47.288,318.95c7.111,4.266,14.127,8.533,21.144,12.989,2.371,1.517,4.646,3.129,7.301,4.077m314.217-101.831c2.086,.095,3.508,1.707,5.12,2.655,9.386,5.689,18.678,11.662,27.97,17.446M239.003,75.56c-3.508-1.232-6.447-3.508-9.576-5.404-5.12-3.034-10.145-6.163-15.265-9.292M76.775,365.693c-.094,10.051-.758,20.196-.094,30.246,.284,1.991-.949,3.982-2.75,5.12-5.784,3.888-11.662,7.775-17.541,11.662-.474,.285-.948,.474-1.043,1.138m416.332-109.89c1.612,2.181,4.172,2.939,6.258,4.361,3.793,2.56,7.585,5.12,11.662,7.206,1.328,.664,1.707,2.086,3.034,2.465m-342.756-31.573c-6.542,4.456-12.989,9.197-19.911,13.179-.379,.19-.948,.569-.758,1.233m152.178-58.596c.284,2.75,.379,5.5,.094,8.249-.284,2.75,.285,5.5,.38,8.249,0,1.043-.569,2.086-.474,3.129,.189,2.655,2.56,3.698,4.361,4.836,3.319,2.18,7.016,3.982,10.24,6.257,1.802,1.233,3.982,1.612,5.499,3.319M164.384,132.639c-3.793,2.56-7.491,5.309-11.378,7.68-5.12,3.223-9.861,7.016-15.17,9.86-.948,.569-2.181,.759-2.845,1.802m81.067,3.887c7.49,4.551,14.981,9.102,22.471,13.653,.095,.095,.379,0,.474,0M57.338,215.886c-4.646,2.275-8.533,5.689-12.99,8.249-1.327,.758-1.707,1.801-1.517,3.129,.474,3.129,.19,6.163,.19,9.291,.095,7.68,.285,15.361-.095,22.946-.284,5.025,.095,9.955-.379,14.98-.19,2.655,.379,5.31,.379,7.965,0,1.043-.569,2.086-.474,3.129,.19,2.465,2.275,3.603,4.077,4.646,1.422,.758,2.655,1.896,4.077,2.654m13.464,8.723c-3.982,2.56-8.059,5.026-11.852,7.87-1.991,1.517-4.741,2.181-5.973,4.551M-24.013,103.72c5.499,2.086,10.05,5.784,14.981,8.818M29.937,199.578c-11.757,7.869-23.419,16.023-35.366,23.514m136.154-68.172c-3.508,2.181-6.826,4.551-10.335,6.637-1.327,.759-1.706,1.802-1.517,3.129,.38,3.224,.19,6.353,.19,9.576v23.799c0,1.801-.19,3.508-1.043,5.12m31.573,19.626c-3.982-1.517-7.206-4.171-10.903-6.163-1.991-1.137-3.603-2.749-5.974-3.128M294.849,16.87c1.897,.19,3.129-.569,3.319-2.56,.19-1.612-.285-2.939-1.802-3.319-3.887-1.138-6.163,3.982-1.801,5.879m173.701,288.142c4.93-1.328,3.792-7.301-.759-6.163-3.034,.569-2.844,5.784,.474,5.878m-209.066-63.81c5.025-1.327,3.792-7.301-.759-6.163-3.034,.569-2.844,5.784,.474,5.879M94.031,494.073c5.025-1.328,3.793-7.301-.758-6.163-3.034,.568-2.845,5.783,.474,5.878m41.15-122.121c5.025-1.328,3.792-7.301-.759-6.163-3.034,.569-2.844,5.783,.474,5.878M102.376,48.727c5.025-1.327,3.792-7.301-.759-6.163-3.034,.569-2.844,5.784,.474,5.879m242.157,28.16c5.025-1.327,3.793-7.301-.758-6.163-3.034,.569-2.845,5.784,.474,5.878m153.315,151.704c5.025-1.327,3.792-7.3-.759-6.163-3.034,.569-2.844,5.784,.474,5.879M12.396,177.865c5.025-1.327,3.793-7.301-.758-6.163-3.034,.569-2.844,5.784,.474,5.879m526.507,71.585c5.025-1.328,3.792-7.301-.759-6.163-3.034,.569-2.844,5.784,.474,5.878m-256.379-43.614c2.275-1.043,3.697-3.224,2.844-4.646-.758-1.138-1.801-1.802-3.318-1.612-1.423,.189-2.371,.948-2.56,2.37-.19,1.328,0,2.75,1.517,3.319,.474,.189,.853,.379,1.327,.474m186.216-54.708c2.276-.948,3.698-3.224,2.844-4.646-.758-1.138-1.801-1.802-3.318-1.612-1.422,.19-2.37,.948-2.56,2.37-.19,1.328,0,2.75,1.517,3.319,.474,.189,.853,.379,1.327,.474m-142.98,126.672c2.275-.948,3.697-3.223,2.844-4.646-.758-1.137-1.801-1.801-3.318-1.611-1.423,.189-2.371,.948-2.561,2.37-.189,1.327,.001,2.75,1.518,3.319,.474,.189,.853,.379,1.327,.474m252.682,56.414c2.086-1.043,3.413-3.223,2.56-4.645-.759-1.138-1.802-1.802-3.319-1.612-1.422,.189-2.37,.948-2.559,2.37-.19,1.327,0,2.655,1.517,3.319,.568,.189,1.232,.094,1.517,.853-.759,2.56-.19,5.31-.095,7.964,.474,13.938,0,27.781-.19,41.624-.19,2.56-.379,5.404,.285,7.964,.284,1.138-1.328,2.276,0,3.319M77.249,293.918c-1.706-.094-2.844,1.138-4.171,2.086-2.56,1.802-5.405,3.319-7.775,5.405m66.465-89.41c-3.603-1.612-6.922-3.888-10.335-5.974-.664-.379-1.232-.853-2.086-.758m258.181,185.268c-.19,10.714,.379,21.523-.095,32.332-.284,5.025,.095,9.955-.379,14.98-.285,2.75,.19,5.5,.474,8.249,.095,1.138-1.328,2.276,0,3.319m-190.957-178.536c5.025-1.328,3.792-7.206-.759-6.163-1.232,.284-2.37,1.232-2.275,2.56,.095,1.611,.663,3.223,2.749,3.318m-35.65,47.597c-.19,10.619,.379,21.239-.095,31.763-.284,5.025,.095,9.956-.379,14.981-.285,2.749,.189,5.499,.474,8.249,.095,1.137-1.328,2.275,0,3.318m162.039-92.918c7.111,3.887,13.653,8.817,20.859,12.42,.664,.38,1.233,.38,1.802,.474,0,3.698,.284,10.809-.095,14.507M132.811,111.495c-.19,3.413-1.138,6.826-.379,10.335,.284,1.232,.284,2.939-.19,4.361-.284,.948-.474,2.181-.19,2.844,1.328,2.371-.948,4.741,.474,7.017-1.611,3.982,1.233,5.689,3.888,7.206,2.086,1.137,3.887,2.655,5.878,3.982m-9.765,45.321c0,4.552,.284,9.197-.095,13.654-.379,5.025,.189,9.955-.379,14.98-.38,3.224,.284,6.543,.379,9.766m193.991,250.975c-2.276-3.223-7.301-.474-5.405,3.129,.664,1.422,1.896,1.802,3.319,1.517,2.18-.284,2.465-2.275,2.37-4.077m-176.071-164.598c2.276-.949,3.698-3.224,2.844-4.646-.758-1.138-1.801-1.802-3.318-1.612-1.327,.189-2.37,.853-2.56,2.086-.19,1.422-.19,2.939,1.517,3.603,.474,.189,.853,.379,1.327,.474M280.153,117.468c-3.318,2.181-6.542,4.456-9.861,6.732m107.236,266.05c4.456-1.801,3.603-6.921-.759-6.163-1.232,.19-2.18,.949-2.275,2.276s0,2.75,1.517,3.318c.474,.19,.853,.38,1.327,.475m65.138-123.923c.379,.284,1.043,.568,.948,.758-.663,12.231,.285,24.462-.379,36.693-.284,4.552,.284,9.103-.284,13.749-.38,2.654,.189,5.499,.474,8.248,.094,1.138-1.328,2.276,0,3.319M12.68,211.714c.948,3.224,.379,6.542,.474,9.861,.19,5.689,0,11.378,0,17.066m16.783-102.115c.379,.284,1.043,.569,.948,.758-.664,12.232,.284,24.463-.379,36.694-.284,4.551,.285,9.102-.284,13.748-.379,2.655,.19,5.499,.474,8.249,.095,1.138-1.327,2.275,0,3.318m119.181,24.083c.38,.285,1.043,.569,.949,.759-.474,6.163-.095,12.421-.19,18.583,0,.949-.095,1.802-.569,2.561M239.288,76.034c.379,.284,1.043,.569,.948,.758-.569,11.757,0,23.419-.19,35.176M76.017,336.49c.379,.285,1.043,.569,.948,.759-.759,5.12,0,10.335-.19,15.55m235.9-43.141c.379,.284,1.043,.569,.948,.758-.948,14.507,.664,29.014-.759,43.425M240.047,112.538c-.854,4.93,0,9.86-.475,14.696-.284,2.75,.19,5.499,.475,8.249,.094,1.138-1.328,2.275,0,3.318m-89.126,108.089c-.569,3.129-.19,6.353-.285,9.577-.19,6.068-.664,12.231-.379,18.299,.095,2.655-.379,5.404,.379,8.059,.285,1.138-1.327,2.276,0,3.319m317.63-116.243c-.569,2.465-.19,5.025-.285,7.49-.094,5.689-.189,11.378-.284,17.067,0,2.465-.285,5.025-.095,7.49,.19,2.655-.379,5.405,.379,8.059,.285,1.138-1.327,2.276,0,3.319M12.68,250.967c.095,2.94,.474,5.784,.095,8.818-.284,2.655,.095,5.499,.474,8.249,.19,1.233-1.517,2.465-.095,3.603m282.454,28.444c-.474,1.517-.19,3.129-.285,4.646,0,4.931,.285,9.861-.094,14.697-.38,5.025,.094,9.955-.38,14.98-.284,2.75,.19,5.5,.474,8.249,.095,1.138-1.327,2.276,0,3.319m293.642,9.386c-.379,7.965,.569,15.835-.474,23.799-.285,2.56,.474,5.215,.095,7.68-.475,3.129,.853,6.258-.095,9.292-.19,.758,.095,1.612,.189,2.465M69.475,437.563c0,7.016,.284,13.938-.095,20.954-.285,5.025,.095,9.956-.379,14.981-.284,2.749,.19,5.499,.474,8.249,.095,1.137-1.327,2.275,0,3.318M294.85,26.256c0,8.344,.284,16.687-.095,25.031-.19,5.025,.189,10.05-.38,14.981-.284,2.37,1.138,4.836,0,7.206M-10.075,226.221c-2.56,1.043-4.456,3.129-6.921,4.456-1.138,.569-2.276,1.233-3.413,1.707m315.828,51.2c-.568,3.697,.095,7.395,0,11.093,0,1.327,.285,2.655-.474,3.887m107.71,57.079c-3.224,1.896-6.353,4.077-9.292,6.447m-3.887-156.823c2.275-.948,3.697-3.224,2.844-4.646-.759-1.233-1.991-1.802-3.603-1.612-1.517,.19-1.991,1.327-2.276,2.37-.568,2.181,.664,3.224,2.75,3.888M-24.297,103.625c0-1.991,.474-4.267-2.086-4.741-1.422-.284-2.844,0-3.603,1.517-.569,1.233-.474,2.56,.474,3.603,1.422,1.517,3.413,.948,4.93-.284m349.392,173.606c-.569,3.508,0,7.016,0,10.619,0,.853,.285,1.802-.474,2.56m143.644-139.757c-.379,4.836,.095,9.671,0,14.507m-78.507,40.296c-.189,9.387,.38,18.773-.284,28.16m-107.235-28.16v30.53m12.705-162.322c2.844,.664,4.172,3.224,2.56,5.12-.948,1.232-3.224,1.422-4.362,.474-1.991-1.707-.853-4.93,1.517-5.689m-97.943,279.609c3.223,1.042,5.499,4.266,8.817,4.93m108.468,12.705c4.362,1.896,2.845,7.111-1.327,6.163-1.138-.284-1.991-1.138-2.086-2.56-.19-2.086,1.233-3.318,3.129-3.603m275.532,27.876c2.37,1.611,3.034,3.603,1.802,5.214-.854,1.138-2.086,1.328-3.319,1.043-1.232-.284-1.991-1.137-2.086-2.56-.189-2.086,1.233-3.318,3.129-3.603m-199.775-136.248c-2.655,1.801-5.025,3.887-7.965,5.12M46.245,314.304c1.233,2.844,1.896,4.551-2.844,5.973-2.37-2.086-3.034-3.887-1.802-5.404,1.233-1.423,2.75-1.328,4.361-.759m-74.619,22.376c-2.56-1.801-5.215-1.232-5.689,1.328-.379,1.896,.664,3.318,2.56,3.603,2.844,.474,3.603-1.991,3.319-4.362M270.103,123.916c-2.086-1.802-3.888-1.802-5.215,0-.948,1.327-.664,3.603,.758,4.361,.949,.474,1.992,.664,3.129,.095,1.707-.853,1.517-2.371,1.517-3.888m-87.324,297.814c-1.043-1.422-2.465-1.328-3.887-.759-1.233,.569-1.707,1.707-1.612,3.034,.095,1.423,.948,2.181,2.086,2.56,2.56,.854,4.077-1.043,3.603-4.361m-157.867,10.145c-2.844-1.422-4.93-.853-5.404,1.517-.379,1.896,.664,3.319,2.56,3.603,1.896,.284,3.224-.758,3.319-2.844,0-.664,.284-1.423-.19-2.086m407.609-172.279c3.129,1.422,5.689,3.888,9.007,4.93m-309.38-34.417c1.328,.284,2.845,.569,3.034,2.37,.095,1.138,.474,2.56-.948,3.319-1.422,.853-2.939,.948-4.077-.285-1.896-1.896-.569-4.456,1.802-5.404m455.869,107.994c.853,1.517,.095,3.129,.474,4.646,.474,1.991-.379,4.077,.095,6.163M-22.496,332.413c-1.422,2.276-4.267,2.465-5.973,4.362m421.547,25.031c-1.043-3.034-6.353-1.707-5.784,1.517,.284,1.422,.758,2.37,2.181,2.844,2.275,.759,3.887-.758,3.887-3.887m133.12,64.948c-2.086-1.801-3.887-1.801-5.215,0-.948,1.328-.663,3.603,.759,4.362,.948,.474,1.991,.663,3.129,.094,1.706-.853,1.517-2.37,1.517-3.887M-20.41,232.668c.474,3.413-1.043,5.215-3.603,4.362-1.138-.38-1.991-1.138-2.086-2.56-.095-1.423,.19-2.56,1.612-3.034,1.422-.569,2.844-.664,3.887,.758m120.888,87.23c0,.853,.19,1.801,0,2.56-.474,1.327-1.801,2.086-3.034,1.991-2.275-.095-3.034-1.897-3.129-4.077,2.371-2.56,3.509-2.75,5.974-1.043m89.316-146.679c.474,2.75-.095,3.983-2.086,4.362-2.181,.379-3.129-.569-3.888-3.888,2.466-2.56,3.319-2.749,5.689-1.043m-120.415,250.691c.285,.379,1.233,.379,1.043,1.043-1.138,3.223,0,6.352-.19,9.576m400.023-55.372c-.758,1.517,.474,3.224-.474,4.646m-132.931-214.85c1.233,.095,2.086,.948,2.845,1.801m-167.159-41.149c-1.137,.948-2.939,.948-3.603,2.56M3.104,511.898c.474,1.232,1.612,1.517,2.56,2.086M294.85,17.154c-.569,1.612,0,3.319,0,4.93m-66.181,274.679l-4.172,2.655m-13.274-240.735l-4.456-3.129" fill="none" stroke="#e3e6e8" stroke-linecap="round" stroke-linejoin="round" stroke-width="2"/>
</svg>