<?xml version="1.0" encoding="UTF-8"?>
<svg id="a"
  xmlns="http://www.w3.org/2000/svg" viewBox="0 0 260 260">
  <rect width="260" height="260" fill="#002145" stroke="none"/>
  <path d="M61.597,166.058c-19.781,0-31.597-10.586-31.597-28.372v-42.58h16.401v41.909c0,10.333,5.44,16.015,15.322,16.015,10.14,0,15.515-5.44,15.515-15.72v-42.204h16.511v42.301c0,17.679-12.318,28.655-32.153,28.655m61.949-59.286h6.611c7.896,0,11.745,2.603,11.745,7.941,0,5.427-4.416,8.421-12.397,8.421h-5.96v-16.362Zm0,27.327h6.829c6.482,0,14.195,1.705,14.195,9.722,0,7.778-7.582,9.406-13.961,9.406h-7.06l-.002-19.129Zm7.06,30.78c19.229,0,29.808-7.332,29.808-20.669,0-8.002-4.258-13.542-12.64-16.498,6.25-2.962,9.527-7.794,9.527-14.075,0-11.933-9.361-18.53-26.354-18.53h-23.245v69.772h22.904m75.744,1.179c8.092,.042,16.06-1.997,23.138-5.92l.515-.301-2.315-13.252-1.069,.641c-6.482,3.904-12.718,5.804-19.048,5.804-13.366,0-21.66-8.821-21.66-23.033,0-14.475,8.021-23.122,21.438-23.122,6.222,0,11.921,1.852,17.909,5.875l1.079,.719,2.45-14.207-.535-.296c-6.096-3.384-13.117-5.027-21.458-5.027-22.496,0-37.616,14.534-37.616,36.145,0,21.875,14.583,35.972,37.167,35.972" fill="#fff"/>
</svg>