<?xml version="1.0" standalone="no"?>
<!DOCTYPE svg PUBLIC "-//W3C//DTD SVG 20010904//EN"
 "http://www.w3.org/TR/2001/REC-SVG-20010904/DTD/svg10.dtd">
<svg version="1.0"
  xmlns="http://www.w3.org/2000/svg" width="700.000000pt" height="700.000000pt" viewBox="0 0 700.000000 700.000000" preserveAspectRatio="xMidYMid meet">
  <metadata>
Created by potrace 1.14, written by Peter Selinger 2001-2017
  </metadata>
  <g transform="translate(0.000000,700.000000) scale(0.100000,-0.100000)" fill="#000000" stroke="none">
    <path d="M0 3500 l0 -3500 3500 0 3500 0 0 3500 0 3500 -3500 0 -3500 0 0
-3500z m5740 960 c108 -14 203 -38 300 -77 131 -52 123 -29 86 -243 -18 -102
-37 -184 -42 -183 -5 1 -39 19 -74 40 -142 86 -270 123 -425 123 -208 0 -353
-65 -459 -204 -81 -107 -118 -236 -118 -416 0 -137 18 -225 68 -327 151 -314
577 -384 980 -163 41 22 74 39 74 38 0 -2 14 -79 30 -173 16 -93 30 -173 30
-176 0 -3 -39 -24 -87 -47 -236 -108 -485 -144 -739 -107 -235 35 -414 124
-560 278 -177 186 -251 405 -241 717 5 180 25 268 87 399 137 285 388 464 724
516 98 16 264 18 366 5z m-4488 -652 c3 -633 3 -633 26 -689 67 -166 180 -234
387 -234 208 0 320 67 387 232 l23 58 3 633 3 632 219 0 220 0 0 -620 c0 -526
-2 -633 -16 -697 -22 -107 -48 -171 -103 -255 -100 -152 -244 -248 -457 -305
-88 -23 -119 -26 -274 -27 -135 -1 -194 3 -260 17 -244 53 -426 182 -517 367
-80 163 -76 125 -80 863 l-4 657 220 0 220 0 3 -632z m2546 604 c297 -66 442
-233 430 -494 -3 -75 -10 -104 -32 -150 -33 -70 -96 -136 -165 -176 l-52 -29
76 -36 c194 -92 287 -271 257 -490 -28 -195 -153 -337 -366 -414 -23 -8 -84
-24 -136 -35 -84 -18 -142 -21 -502 -25 l-408 -5 0 942 0 942 403 -5 c360 -4
412 -6 495 -25z"/>
    <path d="M3330 3906 l0 -226 88 0 c272 1 401 75 402 233 0 62 -19 105 -63 144
-54 47 -121 64 -284 70 l-143 6 0 -227z"/>
    <path d="M3330 3131 l0 -261 93 0 c238 0 371 40 432 128 26 38 30 54 33 120 3
66 0 84 -20 121 -31 57 -79 96 -153 123 -49 17 -89 22 -222 26 l-163 4 0 -261z"/>
  </g>
</svg>
